<svg width="24" height="24" viewBox="0 0 24 24" fill="none" xmlns="http://www.w3.org/2000/svg">
<path fill-rule="evenodd" clip-rule="evenodd" d="M3.99335 3C3.44471 3 3 3.44469 3 3.99344V20.0066C3 20.5551 3.44471 21 3.99335 21H12.6143V14.0295H10.2685V11.3129H12.6143V9.30959C12.6143 6.98455 14.0344 5.71867 16.1082 5.71867C17.1018 5.71867 17.9555 5.79252 18.2044 5.82574V8.25537L16.7659 8.25608C15.6379 8.25608 15.4196 8.79194 15.4196 9.57849V11.3129H18.1096L17.7595 14.0295H15.4196V21H20.0065C20.5551 21 21 20.5551 21 20.0066V3.99C21 3.44125 20.5551 3 20.0065 3H3.99335ZM20.0065 23H3.99335C2.3401 23 1 21.6597 1 20.0066V3.99344C1 2.34016 2.34009 1 3.99335 1H20.0065C21.6582 1 23 2.33515 23 3.99V20.0066C23 21.6597 21.6596 23 20.0065 23Z" fill="#3399FF"/>
</svg>
