<svg width="24" height="24" viewBox="0 0 24 24" fill="none" xmlns="http://www.w3.org/2000/svg">
<path fill-rule="evenodd" clip-rule="evenodd" d="M16.4461 1H7.55392C3.94007 1 1 3.94007 1 7.55392V16.4461C1 20.0599 3.94007 23 7.55392 23H16.4461C20.0599 23 23 20.0599 23 16.4461V7.55392C23 3.94007 20.0599 1 16.4461 1ZM20.7868 16.4461C20.7868 18.8434 18.8434 20.7868 16.4461 20.7868H7.55392C5.15663 20.7868 3.2132 18.8434 3.2132 16.4461V7.55392C3.2132 5.15659 5.15663 3.2132 7.55392 3.2132H16.4461C18.8434 3.2132 20.7868 5.15659 20.7868 7.55392V16.4461ZM8.52322 12C8.52322 13.9202 10.0798 15.4768 12 15.4768C13.9201 15.4768 15.4768 13.9201 15.4768 12C15.4768 10.0798 13.9202 8.52322 12 8.52322C10.0799 8.52322 8.52322 10.0798 8.52322 12Z" fill="#3399FF"/>
<mask id="mask0_5947_185" style="mask-type:luminance" maskUnits="userSpaceOnUse" x="1" y="1" width="22" height="22">
<path fill-rule="evenodd" clip-rule="evenodd" d="M16.4461 1H7.55392C3.94007 1 1 3.94007 1 7.55392V16.4461C1 20.0599 3.94007 23 7.55392 23H16.4461C20.0599 23 23 20.0599 23 16.4461V7.55392C23 3.94007 20.0599 1 16.4461 1ZM20.7868 16.4461C20.7868 18.8434 18.8434 20.7868 16.4461 20.7868H7.55392C5.15663 20.7868 3.2132 18.8434 3.2132 16.4461V7.55392C3.2132 5.15659 5.15663 3.2132 7.55392 3.2132H16.4461C18.8434 3.2132 20.7868 5.15659 20.7868 7.55392V16.4461ZM8.52322 12C8.52322 13.9202 10.0798 15.4768 12 15.4768C13.9201 15.4768 15.4768 13.9201 15.4768 12C15.4768 10.0798 13.9202 8.52322 12 8.52322C10.0799 8.52322 8.52322 10.0798 8.52322 12Z" fill="white"/>
</mask>
<g mask="url(#mask0_5947_185)">
</g>
</svg>
