<svg width="24" height="24" viewBox="0 0 24 24" fill="none" xmlns="http://www.w3.org/2000/svg">
<path fill-rule="evenodd" clip-rule="evenodd" d="M2.30453 7.31278C2.10838 6.92435 2 6.46353 2 5.92487C2.00049 3.75844 3.75575 2 5.92322 2C8.08868 2 9.84476 3.75941 9.84476 5.92533C9.84476 6.46368 9.73636 6.92432 9.54021 7.31264L14.2428 7.31254C14.7981 7.14039 15.3963 7.04685 16.0225 7.04685C20.3426 7.04685 22 9.68036 22 14.138V22H14.6867H2V7.31278L2.30453 7.31278ZM5.92322 7.85162C6.98294 7.85162 7.84476 6.9888 7.84476 5.92533C7.84476 4.86306 6.98318 4 5.92322 4C4.86037 4 4.00024 4.86306 4 5.92533C4 6.98856 4.86037 7.85162 5.92322 7.85162ZM7.58049 9.31254V20H4.26451V9.31254H7.58049ZM20 20V14.138C20 11.2604 19.3802 9.04685 16.0225 9.04685C14.4092 9.04685 13.328 9.93264 12.8851 10.773H12.8405V9.31254H9.66011V19.9998H12.9732V14.7128C12.9732 13.3189 13.2384 11.9689 14.963 11.9689C16.6637 11.9689 16.6867 13.5631 16.6867 14.8025V20H20Z" fill="#3399FF"/>
</svg>
