<svg width="24" height="24" viewBox="0 0 24 24" fill="none" xmlns="http://www.w3.org/2000/svg">
<path fill-rule="evenodd" clip-rule="evenodd" d="M12 9.8C13.535 9.8 14.8 8.53497 14.8 7C14.8 5.46503 13.535 4.2 12 4.2C10.465 4.2 9.2 5.46503 9.2 7C9.2 8.53497 10.465 9.8 12 9.8ZM12 12C9.25 12 7 9.75 7 7C7 4.25 9.25 2 12 2C14.75 2 17 4.25 17 7C17 9.75 14.75 12 12 12ZM12 15.8667C7.75004 15.8667 4.2 17.8345 4.2 19.5C4.2 19.6657 4.33431 19.8 4.5 19.8H19.5C19.6657 19.8 19.8 19.6657 19.8 19.5C19.8 17.8345 16.25 15.8667 12 15.8667ZM12 13.6667C17.0417 13.6667 22 16.125 22 19.5C22 20.8807 20.8807 22 19.5 22H4.5C3.11929 22 2 20.8807 2 19.5C2 16.125 6.95833 13.6667 12 13.6667Z" fill="#3399FF"/>
<mask id="mask0_5947_170" style="mask-type:luminance" maskUnits="userSpaceOnUse" x="2" y="2" width="20" height="20">
<path fill-rule="evenodd" clip-rule="evenodd" d="M12 9.8C13.535 9.8 14.8 8.53497 14.8 7C14.8 5.46503 13.535 4.2 12 4.2C10.465 4.2 9.2 5.46503 9.2 7C9.2 8.53497 10.465 9.8 12 9.8ZM12 12C9.25 12 7 9.75 7 7C7 4.25 9.25 2 12 2C14.75 2 17 4.25 17 7C17 9.75 14.75 12 12 12ZM12 15.8667C7.75004 15.8667 4.2 17.8345 4.2 19.5C4.2 19.6657 4.33431 19.8 4.5 19.8H19.5C19.6657 19.8 19.8 19.6657 19.8 19.5C19.8 17.8345 16.25 15.8667 12 15.8667ZM12 13.6667C17.0417 13.6667 22 16.125 22 19.5C22 20.8807 20.8807 22 19.5 22H4.5C3.11929 22 2 20.8807 2 19.5C2 16.125 6.95833 13.6667 12 13.6667Z" fill="white"/>
</mask>
<g mask="url(#mask0_5947_170)">
</g>
</svg>
