<svg width="24" height="24" viewBox="0 0 24 24" fill="none" xmlns="http://www.w3.org/2000/svg">
<path fill-rule="evenodd" clip-rule="evenodd" d="M17.4727 7.06194C16.8754 6.40832 16.0219 5.99992 15.0769 5.99992C13.2656 5.99992 11.7956 7.50708 11.7956 9.36583C11.7956 9.62984 11.8238 9.88573 11.8802 10.1322C9.15204 9.99168 6.73365 8.65326 5.1137 6.61423C4.83089 7.1132 4.66941 7.69206 4.66941 8.30851C4.66941 9.47562 5.24869 10.506 6.13001 11.1097C5.59259 11.0934 5.0855 10.9405 4.64207 10.6901V10.7312C4.64207 12.3626 5.77373 13.7237 7.27662 14.0317C7.0015 14.1107 6.71101 14.1505 6.41154 14.1505C6.20007 14.1505 5.99373 14.13 5.7938 14.0907C6.21161 15.4274 7.42315 16.401 8.85983 16.427C7.73672 17.3301 6.32054 17.8684 4.78304 17.8684C4.51818 17.8684 4.2563 17.853 3.99998 17.8222C5.45247 18.7758 7.17879 19.3333 9.032 19.3333C15.0705 19.3333 18.3715 14.2051 18.3715 9.75672C18.3715 9.61019 18.3689 9.46408 18.3634 9.32054C19.0046 8.84593 19.5617 8.2534 20 7.57842C19.4122 7.84585 18.779 8.02698 18.1152 8.10815C18.7931 7.69206 19.3135 7.03246 19.5587 6.24641C18.9239 6.63175 18.2224 6.91199 17.4727 7.06194ZM18.5209 4.53673L20.9836 3.51961C21.583 3.27201 22.2418 3.71268 22.2418 4.36128L22.7208 4.49233C23.3618 4.66769 23.6566 5.40787 23.3117 5.97587L21.6774 8.66766C21.3019 9.24577 20.8593 9.77742 20.3614 10.2498C20.1187 16.1807 15.5152 21.3333 9.032 21.3333C6.8317 21.3333 4.71878 20.6866 2.90242 19.4942C2.43138 19.2362 1.66131 18.2955 1.03272 17.4551C0.564722 16.8295 1.00286 15.9613 1.78362 15.9311L4.23827 15.8365C4.29416 15.8432 4.35065 15.8489 4.40768 15.8535C4.19084 15.4921 4.01431 15.1014 3.88488 14.6873L3.62127 13.8439C3.00177 12.9601 2.64207 11.882 2.64207 10.7312C2.64207 10.7312 2.2696 8.66766 2.75739 7.32946C2.86624 6.73035 3.07456 6.15592 3.37374 5.62805L4.10464 4.3385C4.45418 3.7218 5.31664 3.65451 5.75759 4.20954L6.67965 5.37013C7.56667 6.48662 8.73018 7.31043 10.0369 7.75882C10.708 5.58592 12.7039 3.99992 15.0769 3.99992C16.1048 3.99992 17.0873 4.30039 17.9225 4.8423C18.128 4.75597 18.3278 4.65392 18.5209 4.53673Z" fill="#3399FF"/>
</svg>
