<svg width="24" height="25" viewBox="0 0 24 25" fill="none" xmlns="http://www.w3.org/2000/svg">
<path d="M18.1884 15.134C19.1986 11.8427 17.9099 9.64069 16.2416 9.08487C14.5787 8.5308 13.0883 9.45829 11.4495 9.45829C10.4013 9.45829 9.00308 8.59418 7.55609 8.8968C5.75893 9.27273 3.48482 11.1067 4.71068 15.134C5.98355 19.3162 8.00566 20.8102 9.65249 21.1083C10.7252 21.3026 10.9254 20.8843 11.5993 20.8843C12.2732 20.8843 12.4637 21.2213 13.2466 21.1083C15.0205 20.8524 17.0653 18.7934 18.1884 15.134Z" fill="#4C84D9" stroke="#2F448C"/>
<path d="M11.9553 9.41148C11.999 9.41086 12.0422 9.40149 12.0822 9.38393C12.1222 9.36636 12.1583 9.34096 12.1884 9.30921C12.2184 9.27746 12.2418 9.24002 12.2572 9.19909C12.2725 9.15816 12.2795 9.11457 12.2777 9.0709C12.2589 8.61108 12.0446 7.86402 11.7572 7.1269C11.4666 6.38104 11.0799 5.59068 10.6838 5.04108C10.5364 4.83675 10.3718 4.68337 10.1973 4.5985C10.0257 4.51504 9.7961 4.48046 9.59963 4.6153C9.40403 4.7497 9.35418 4.97475 9.36989 5.16053C9.38592 5.35024 9.46905 5.55053 9.60334 5.74548C9.86625 6.1273 10.1556 6.72915 10.3914 7.3633C10.6277 7.99842 10.7977 8.63148 10.8394 9.07122C10.8465 9.14514 10.8784 9.21447 10.93 9.26784C10.9816 9.3212 11.0499 9.35543 11.1235 9.3649C11.398 9.40013 11.676 9.41541 11.9553 9.41148Z" fill="white" stroke="#2F448C" stroke-linecap="round" stroke-linejoin="round"/>
<path fill-rule="evenodd" clip-rule="evenodd" d="M11.2704 6.70501C12.7357 4.32792 15.8233 4.45807 18.1603 5.23512C16.4468 7.48403 13.1515 7.2065 11.2704 6.70501Z" fill="#11C5BB"/>
<path fill-rule="evenodd" clip-rule="evenodd" d="M6.18882 14.5383C6.10318 14.5384 6.02058 14.5066 5.95713 14.4491C5.89367 14.3916 5.85392 14.3125 5.84562 14.2273C5.55794 11.2033 7.23707 10.2381 7.30874 10.1985C7.38872 10.1543 7.48294 10.1435 7.57086 10.1684C7.65879 10.1933 7.7333 10.252 7.77816 10.3316C7.82245 10.4108 7.83349 10.5043 7.80886 10.5916C7.78423 10.6789 7.72595 10.7529 7.64682 10.7972C7.63591 10.8037 7.30176 11.004 7.00133 11.5031C6.59376 12.1803 6.43187 13.0999 6.53289 14.1627C6.5373 14.2105 6.53167 14.2586 6.51637 14.3041C6.50106 14.3495 6.47642 14.3913 6.44401 14.4267C6.41161 14.462 6.37217 14.4902 6.32822 14.5095C6.28427 14.5287 6.23679 14.5385 6.18882 14.5383ZM6.68605 15.9399C6.49525 15.9399 6.34056 15.7864 6.34056 15.5968C6.34068 15.5516 6.34969 15.5069 6.3671 15.4652C6.3845 15.4234 6.40995 15.3856 6.44199 15.3537C6.47403 15.3218 6.51204 15.2965 6.55384 15.2794C6.59564 15.2622 6.64042 15.2534 6.68562 15.2535H6.68605C6.73127 15.2534 6.77606 15.2621 6.81788 15.2793C6.8597 15.2965 6.89773 15.3218 6.92979 15.3536C6.96185 15.3855 6.98732 15.4234 7.00474 15.4651C7.02216 15.5068 7.0312 15.5516 7.03133 15.5968C7.0312 15.642 7.02216 15.6867 7.00474 15.7284C6.98731 15.7702 6.96184 15.808 6.92978 15.8399C6.89771 15.8718 6.85969 15.897 6.81787 15.9141C6.77605 15.9313 6.73126 15.9401 6.68605 15.9399Z" fill="#11C5BB"/>
</svg>
