<svg width="24" height="25" viewBox="0 0 24 25" fill="none" xmlns="http://www.w3.org/2000/svg">
<path fill-rule="evenodd" clip-rule="evenodd" d="M11.0739 17.0155C11.0334 17.056 10.9853 17.0882 10.9323 17.1101C10.8794 17.1321 10.8227 17.1433 10.7654 17.1433C10.708 17.1433 10.6513 17.1321 10.5984 17.1101C10.5454 17.0882 10.4973 17.056 10.4568 17.0155L7.52552 14.0842C7.485 14.0437 7.45285 13.9956 7.43092 13.9427C7.40899 13.8897 7.3977 13.833 7.3977 13.7757C7.3977 13.7184 7.40899 13.6616 7.43092 13.6087C7.45285 13.5557 7.485 13.5076 7.52552 13.4671L15.2393 5.7533C15.2799 5.71278 15.328 5.68064 15.3809 5.65871C15.4338 5.63678 15.4906 5.62549 15.5479 5.62549C15.6052 5.62549 15.662 5.63678 15.7149 5.65871C15.7678 5.68064 15.8159 5.71278 15.8565 5.7533L18.7877 8.68458C18.8283 8.7251 18.8604 8.7732 18.8823 8.82615C18.9043 8.87909 18.9156 8.93583 18.9156 8.99314C18.9156 9.05045 18.9043 9.10719 18.8823 9.16013C18.8604 9.21308 18.8283 9.26118 18.7877 9.3017L11.0739 17.0155Z" fill="white" stroke="#2F448C" stroke-linecap="round" stroke-linejoin="round"/>
<path fill-rule="evenodd" clip-rule="evenodd" d="M5.69712 19.847L4.77148 18.9214L8.55138 15.1416L9.47701 16.0672L5.69712 19.847Z" fill="white" stroke="#2F448C" stroke-linecap="round" stroke-linejoin="round"/>
<path fill-rule="evenodd" clip-rule="evenodd" d="M6.12108 20.9658C6.0755 21.0114 6.02138 21.0476 5.96182 21.0722C5.90226 21.0969 5.83842 21.1096 5.77396 21.1096C5.70949 21.1096 5.64565 21.0969 5.58609 21.0722C5.52653 21.0476 5.47241 21.0114 5.42683 20.9658L3.65257 19.1916C3.56051 19.0995 3.50879 18.9746 3.50879 18.8444C3.50879 18.7142 3.56051 18.5894 3.65257 18.4973C3.74464 18.4052 3.8695 18.3535 3.9997 18.3535C4.1299 18.3535 4.25476 18.4052 4.34683 18.4973L6.12108 20.2716C6.16667 20.3171 6.20283 20.3713 6.2275 20.4308C6.25217 20.4904 6.26487 20.5542 6.26487 20.6187C6.26487 20.6831 6.25217 20.747 6.2275 20.8065C6.20283 20.8661 6.16667 20.9202 6.12108 20.9658Z" fill="white" stroke="#2F448C" stroke-linecap="round" stroke-linejoin="round"/>
<path d="M15.4708 5.98507C15.4913 5.96461 15.519 5.95312 15.548 5.95312C15.5769 5.95312 15.6046 5.96461 15.6251 5.98507L18.5564 8.91634C18.5768 8.9368 18.5883 8.96454 18.5883 8.99347C18.5883 9.02239 18.5768 9.05013 18.5564 9.07059L14.4509 13.1761C14.3019 13.325 14.0572 13.2914 14.0043 13.0874C13.9401 12.8401 13.9168 12.6079 13.6967 12.3876C13.367 12.0579 12.9464 12.2544 12.6167 11.9247C12.287 11.5951 12.4835 11.1745 12.1538 10.8447C11.9337 10.6246 11.7013 10.6014 11.454 10.5371C11.2501 10.4842 11.2164 10.2395 11.3654 10.0905L15.4708 5.98507Z" fill="#11C5BB"/>
<path fill-rule="evenodd" clip-rule="evenodd" d="M18.1814 7.37994C18.153 7.41664 18.117 7.44687 18.076 7.46861C18.0349 7.49035 17.9897 7.5031 17.9434 7.50602C17.897 7.50894 17.8506 7.50196 17.8071 7.48554C17.7637 7.46913 17.7242 7.44366 17.6914 7.41082L17.2492 6.96867C17.2164 6.93583 17.1909 6.89637 17.1745 6.85292C17.1581 6.80948 17.1511 6.76303 17.154 6.71668C17.1569 6.67033 17.1697 6.62513 17.1914 6.58408C17.2132 6.54304 17.2434 6.50709 17.2801 6.47863L19.1099 5.0598C19.1729 5.011 19.2515 4.98684 19.331 4.99186C19.4105 4.99688 19.4854 5.03073 19.5418 5.08707L19.573 5.11827C19.6293 5.17461 19.6632 5.24958 19.6682 5.32912C19.6733 5.40865 19.6491 5.48729 19.6002 5.55027L18.1814 7.37994Z" fill="#11C5BB" stroke="#2F448C" stroke-linecap="round" stroke-linejoin="round"/>
<path fill-rule="evenodd" clip-rule="evenodd" d="M12.2992 12.3469C12.1638 12.2116 12.1726 11.9835 12.3187 11.8375L14.4352 9.7211C14.5812 9.57492 14.8094 9.56619 14.9446 9.70146C15.0799 9.83674 15.0712 10.0647 14.925 10.2109L12.8086 12.3273C12.6626 12.4735 12.4344 12.4822 12.2992 12.3469Z" fill="#2F448C"/>
<path fill-rule="evenodd" clip-rule="evenodd" d="M11.3193 13.327C11.2543 13.262 11.2178 13.1739 11.2178 13.082C11.2178 12.9901 11.2542 12.9019 11.3192 12.8369C11.3513 12.8048 11.3895 12.7792 11.4315 12.7618C11.4735 12.7444 11.5185 12.7354 11.564 12.7354C11.6095 12.7353 11.6545 12.7443 11.6965 12.7617C11.7385 12.7791 11.7767 12.8046 11.8089 12.8367L11.8092 12.837C11.8725 12.9024 11.9076 12.9899 11.9069 13.0809C11.9062 13.1718 11.8698 13.2589 11.8054 13.3232C11.7411 13.3875 11.6541 13.424 11.5631 13.4247C11.4722 13.4254 11.3846 13.3903 11.3193 13.327Z" fill="#2F448C"/>
</svg>
