<svg width="24" height="25" viewBox="0 0 24 25" fill="none" xmlns="http://www.w3.org/2000/svg">
<path d="M15.0695 3.52393C17.236 3.52393 18.6654 6.01524 18.6654 9.08865C18.6654 10.0871 18.599 10.6325 18.5186 11.4135C18.1023 15.4617 16.8291 21.8548 15.0695 21.8548C13.8057 21.8548 13.989 13.8056 11.964 13.7982C10.266 13.8055 10.1224 21.8548 8.85855 21.8548C6.692 21.8548 5.2627 12.162 5.2627 9.08865C5.2627 6.01534 6.692 3.52393 8.85855 3.52393C9.8936 3.52393 10.929 4.50596 11.964 4.50596C12.9991 4.50596 14.0344 3.52393 15.0695 3.52393Z" fill="white"/>
<path d="M18.6606 9.41614C18.6637 9.30007 18.6654 9.19076 18.6654 9.08865C18.6654 6.01524 17.236 3.52393 15.0695 3.52393C14.0344 3.52393 12.9991 4.50596 11.964 4.50596C10.929 4.50596 9.8936 3.52393 8.85855 3.52393C6.692 3.52393 5.2627 6.01524 5.2627 9.08865C5.2627 12.162 6.69211 21.8548 8.85855 21.8548C10.1224 21.8548 10.266 13.8055 11.964 13.7982C13.989 13.8056 13.8057 21.8548 15.0695 21.8548C16.8291 21.8548 18.1023 15.4617 18.5186 11.4135" stroke="#2F448C" stroke-linecap="round" stroke-linejoin="round"/>
<path fill-rule="evenodd" clip-rule="evenodd" d="M7.04798 6.8004C7.03082 6.8098 7.01651 6.82364 7.00653 6.84048C6.99656 6.85731 6.9913 6.87651 6.9913 6.89608C6.9913 6.91564 6.99656 6.93484 7.00653 6.95167C7.01651 6.96851 7.03082 6.98235 7.04798 6.99175L7.85329 7.43237C7.91536 7.46607 7.96619 7.51702 8.00001 7.57909L8.44063 8.3844C8.45003 8.40156 8.46387 8.41587 8.4807 8.42584C8.49754 8.43581 8.51674 8.44108 8.5363 8.44108C8.55587 8.44108 8.57507 8.43581 8.5919 8.42584C8.60874 8.41587 8.62258 8.40156 8.63198 8.3844L9.07249 7.57909C9.10633 7.5171 9.15731 7.46616 9.21932 7.43237L10.0246 6.99175C10.0418 6.98235 10.0561 6.96851 10.0661 6.95167C10.076 6.93484 10.0813 6.91564 10.0813 6.89608C10.0813 6.87651 10.076 6.85731 10.0661 6.84048C10.0561 6.82364 10.0418 6.8098 10.0246 6.8004L9.21932 6.36C9.15735 6.3261 9.10639 6.27514 9.07249 6.21317L8.63198 5.40775C8.62258 5.39059 8.60874 5.37628 8.5919 5.36631C8.57507 5.35633 8.55587 5.35107 8.5363 5.35107C8.51674 5.35107 8.49754 5.35633 8.4807 5.36631C8.46387 5.37628 8.45003 5.39059 8.44063 5.40775L8.00001 6.21317C7.96618 6.27516 7.91525 6.32613 7.85329 6.36L7.04798 6.8004Z" fill="#11C5BB"/>
<path fill-rule="evenodd" clip-rule="evenodd" d="M16.9756 14.8732C16.9585 14.8826 16.9441 14.8964 16.9342 14.9132C16.9242 14.9301 16.9189 14.9493 16.9189 14.9688C16.9189 14.9884 16.9242 15.0076 16.9342 15.0244C16.9441 15.0413 16.9585 15.0551 16.9756 15.0645L17.7809 15.5051C17.843 15.5388 17.8939 15.5898 17.9277 15.6518L18.3683 16.4572C18.3777 16.4743 18.3915 16.4886 18.4083 16.4986C18.4252 16.5086 18.4444 16.5138 18.4639 16.5138C18.4835 16.5138 18.5027 16.5086 18.5195 16.4986C18.5364 16.4886 18.5502 16.4743 18.5596 16.4572L19 15.6518C19.0339 15.5898 19.0849 15.5389 19.147 15.5051L19.9523 15.0645C19.9694 15.0551 19.9837 15.0413 19.9937 15.0244C20.0037 15.0076 20.0089 14.9884 20.0089 14.9688C20.0089 14.9493 20.0037 14.9301 19.9937 14.9132C19.9837 14.8964 19.9694 14.8826 19.9523 14.8732L19.147 14.4328C19.085 14.3988 19.034 14.3479 19 14.2859L18.5596 13.4805C18.5502 13.4633 18.5364 13.449 18.5195 13.4391C18.5027 13.4291 18.4835 13.4238 18.4639 13.4238C18.4444 13.4238 18.4252 13.4291 18.4083 13.4391C18.3915 13.449 18.3777 13.4633 18.3683 13.4805L17.9277 14.2859C17.8938 14.3479 17.8429 14.3989 17.7809 14.4328L16.9756 14.8732Z" fill="#11C5BB"/>
<path fill-rule="evenodd" clip-rule="evenodd" d="M14.1389 3.52745C14.1217 3.53685 14.1074 3.55069 14.0974 3.56753C14.0875 3.58436 14.0822 3.60356 14.0822 3.62313C14.0822 3.64269 14.0875 3.66189 14.0974 3.67873C14.1074 3.69556 14.1217 3.7094 14.1389 3.7188L14.9442 4.15942C15.0063 4.19313 15.0571 4.24407 15.0909 4.30614L15.5315 5.11145C15.5409 5.12861 15.5548 5.14292 15.5716 5.1529C15.5884 5.16287 15.6077 5.16813 15.6272 5.16813C15.6468 5.16813 15.666 5.16287 15.6828 5.1529C15.6996 5.14292 15.7135 5.12861 15.7229 5.11145L16.1633 4.30614C16.1972 4.24415 16.2482 4.19322 16.3102 4.15942L17.1155 3.7188C17.1327 3.7094 17.147 3.69556 17.157 3.67873C17.167 3.66189 17.1722 3.64269 17.1722 3.62313C17.1722 3.60356 17.167 3.58436 17.157 3.56753C17.147 3.55069 17.1327 3.53685 17.1155 3.52745L16.3102 3.08694C16.2482 3.05307 16.1973 3.00216 16.1633 2.94022L15.7229 2.1348C15.7135 2.11764 15.6996 2.10333 15.6828 2.09336C15.666 2.08339 15.6468 2.07812 15.6272 2.07812C15.6077 2.07813 15.5884 2.08339 15.5716 2.09336C15.5548 2.10333 15.5409 2.11764 15.5315 2.1348L15.0909 2.94022C15.0571 3.00223 15.0062 3.0532 14.9442 3.08705L14.1389 3.52745Z" fill="#11C5BB"/>
</svg>
