<svg width="120" height="120" viewBox="0 0 120 120" fill="none" xmlns="http://www.w3.org/2000/svg">
<path fill-rule="evenodd" clip-rule="evenodd" d="M54.8881 102.92H30.3534L32.1058 30.6417H53.1356L54.8881 102.92Z" fill="#4C84D9"/>
<path fill-rule="evenodd" clip-rule="evenodd" d="M47.5614 30.178H36.8389L38.626 16.0534H45.7743L47.5614 30.178Z" fill="#11C5BB"/>
<path fill-rule="evenodd" clip-rule="evenodd" d="M53.1011 37.2404H31.2987L31.4774 30.1781H52.9223L53.1011 37.2404Z" fill="white"/>
<path fill-rule="evenodd" clip-rule="evenodd" d="M54.71 102.92H29.6909L29.8696 95.8576H54.5313L54.71 102.92Z" fill="white"/>
<path fill-rule="evenodd" clip-rule="evenodd" d="M82.0307 57.6486C81.9586 56.854 81.6275 56.0802 81.0373 55.4754L73.0798 47.3207V20.2622C73.0798 18.3118 71.523 16.7166 69.62 16.7166C67.7171 16.7166 66.1603 18.3118 66.1603 20.2622V48.6118C66.1603 48.6401 66.1637 48.6677 66.1644 48.6952C66.1418 49.6339 66.4743 50.5801 67.1695 51.2919L75.1552 59.4762V100.037C75.1552 101.987 76.712 103.583 78.615 103.583C80.518 103.583 82.0747 101.987 82.0747 100.037V58.1844C82.0754 58.0017 82.0568 57.8237 82.0307 57.6486Z" fill="#4C84D9"/>
<path fill-rule="evenodd" clip-rule="evenodd" d="M90.4934 27.9892H72.7914V20.6951H90.4934C92.4279 20.6951 94.0107 22.3329 94.0107 24.3347V24.3496C94.0107 26.3514 92.4279 27.9892 90.4934 27.9892Z" fill="white"/>
<path fill-rule="evenodd" clip-rule="evenodd" d="M90.4934 35.2837H72.7914V27.9896H90.4934C92.4279 27.9896 94.0107 29.6274 94.0107 31.6292V31.6441C94.0107 33.6459 92.4279 35.2837 90.4934 35.2837Z" fill="white"/>
<path fill-rule="evenodd" clip-rule="evenodd" d="M90.4934 41.9146H72.7914V34.6205H90.4934C92.4279 34.6205 94.0107 36.2583 94.0107 38.2601V38.275C94.0107 40.2768 92.4279 41.9146 90.4934 41.9146Z" fill="white"/>
<path fill-rule="evenodd" clip-rule="evenodd" d="M55.2707 37.7097C55.2707 37.7076 55.2707 37.7062 55.2707 37.7062L55.0946 30.5376C55.0618 29.5957 54.2899 28.8182 53.3125 28.8182H49.5396L47.9518 16.2706C47.8412 15.3879 47.0824 14.7274 46.1844 14.7274H39.0563C38.1576 14.7274 37.3989 15.3879 37.2882 16.2706L35.7025 28.8182C33.7799 28.8182 30.3787 28.0993 30.1413 30.7207C29.9332 33.0152 29.9694 35.4055 29.9694 37.7097L28.3642 103.104C28.353 103.578 28.5347 104.037 28.8702 104.377C29.2051 104.717 29.6645 104.909 30.1462 104.909H55.0946C55.5756 104.909 56.035 104.717 56.3705 104.377C56.7053 104.037 56.887 103.578 56.8766 103.104L55.2707 37.7097ZM40.6296 18.25H44.6106L45.9471 28.8182H39.293L40.6296 18.25ZM33.6656 32.3409H51.575L51.6641 35.8636H33.5765L33.6656 32.3409ZM33.4944 39.3863H51.7456L53.0946 94.3408H32.1454L33.4944 39.3863ZM31.9726 101.386L32.0617 97.8635H53.1787L53.2678 101.386H31.9726Z" fill="#2F448C"/>
<path fill-rule="evenodd" clip-rule="evenodd" d="M42.6202 65.123C41.7046 65.123 40.9625 64.3215 40.9625 63.3326V49.0096C40.9625 48.0207 41.7046 47.2192 42.6202 47.2192C43.5359 47.2192 44.278 48.0207 44.278 49.0096V63.3326C44.278 64.3215 43.5359 65.123 42.6202 65.123Z" fill="#2F448C"/>
<path fill-rule="evenodd" clip-rule="evenodd" d="M42.6209 71.754C41.7056 71.754 40.9625 71.0119 40.9625 70.0963C40.9625 69.1806 41.7037 68.4385 42.619 68.4385H42.6209C43.5362 68.4385 44.278 69.1806 44.278 70.0963C44.278 71.0119 43.5362 71.754 42.6209 71.754Z" fill="#2F448C"/>
<path fill-rule="evenodd" clip-rule="evenodd" d="M96.0001 24.2421C96.0001 21.3269 93.6198 18.958 90.6953 18.958H74.5578C74.066 16.5465 71.9482 14.7273 69.4174 14.7273C66.5246 14.7273 64.1713 17.1051 64.1713 20.0251V48.3074C64.1713 48.3466 64.1726 48.3851 64.1747 48.4257C64.1588 49.8596 64.6962 51.2012 65.6902 52.214L73.2157 59.8656V99.6111C73.2157 102.531 75.569 104.909 78.4625 104.909C81.3552 104.909 83.7086 102.533 83.7086 99.6111V57.8579C83.7086 57.6219 83.6906 57.377 83.6519 57.1107C83.5303 55.9081 83.0012 54.7769 82.1599 53.9231L74.6641 46.3018V43.6597H90.6953C93.6198 43.6597 96.0001 41.2888 96.0001 38.3612C96.0001 37.0085 95.4869 35.7735 94.6435 34.8385C95.4869 33.9014 96.0001 32.6615 96.0001 31.302C96.0001 29.9493 95.4869 28.7143 94.6435 27.7793C95.4869 26.8422 96.0001 25.6016 96.0001 24.2421ZM79.6346 56.3868C79.9987 56.7584 80.1085 57.1884 80.1347 57.4843C80.1382 57.518 80.1423 57.551 80.1472 57.5861C80.1651 57.6955 80.172 57.7836 80.172 57.8579V99.6111C80.172 100.59 79.4046 101.386 78.4625 101.386C77.5196 101.386 76.7522 100.59 76.7522 99.6111V59.1472C76.7522 58.6856 76.5699 58.2432 76.2466 57.9143L68.2169 49.748C67.8791 49.4047 67.6988 48.9382 67.7113 48.4346V48.3534C67.7113 48.3231 67.7092 48.2949 67.7078 48.2653V20.0251C67.7078 19.046 68.4752 18.2499 69.4174 18.2499C70.3616 18.2499 71.1276 19.046 71.1276 20.0251V47.02C71.1276 47.4796 71.3093 47.9234 71.6332 48.2529L79.6346 56.3868ZM90.6953 40.1369H74.6655V36.5998H90.6953C91.6692 36.5998 92.4636 37.391 92.4636 38.3756C92.4636 39.3457 91.6692 40.1369 90.6953 40.1369ZM90.6954 33.0769H74.6642V29.5404H90.6954C91.6693 29.5404 92.4636 30.3289 92.4636 31.3155C92.4636 32.2863 91.6693 33.0769 90.6954 33.0769ZM90.6953 26.0179H74.6655V22.4807H90.6953C91.6692 22.4807 92.4636 23.2699 92.4636 24.2565C92.4636 25.2266 91.6692 26.0179 90.6953 26.0179Z" fill="#2F448C"/>
</svg>
