<svg width="120" height="120" viewBox="0 0 120 120" fill="none" xmlns="http://www.w3.org/2000/svg">
<path fill-rule="evenodd" clip-rule="evenodd" d="M67.1544 97.5978L60.4162 108.327L53.678 97.5978V41.2677H67.1544V97.5978Z" fill="#7CB3EA"/>
<path fill-rule="evenodd" clip-rule="evenodd" d="M72.1502 29.5901C71.8982 29.3385 71.5549 29.1974 71.1976 29.1974H49.6351C49.2778 29.1974 48.9355 29.3385 48.6826 29.5901L44.6395 33.6138C44.3867 33.8654 44.2449 34.2062 44.2449 34.5618V41.2676C44.2449 42.0085 44.8485 42.6092 45.5929 42.6092H52.3311V48.9966L50.7012 49.3439C49.9734 49.5015 49.5116 50.2151 49.6691 50.9395C49.8266 51.6614 50.5396 52.1202 51.2658 51.9675L52.3311 51.7406V57.044L50.7012 57.3913C49.9734 57.5481 49.5116 58.2625 49.6691 58.9869C49.8266 59.708 50.5396 60.1675 51.2658 60.0149L52.3311 59.7872V65.0905L50.7012 65.4387C49.9734 65.5954 49.5116 66.3099 49.6691 67.0335C49.8266 67.7554 50.5396 68.2141 51.2658 68.0615L52.3311 67.8346V73.1379L50.7012 73.4853C49.9734 73.642 49.5108 74.3565 49.6683 75.08C49.8258 75.802 50.5396 76.2623 51.2658 76.1089L52.3311 75.882V81.1845L50.7012 81.5326C49.9734 81.6894 49.5108 82.4031 49.6683 83.1274C49.8258 83.8493 50.5396 84.3089 51.2658 84.1554L52.3311 83.9285V89.2319L50.7012 89.5792C49.9734 89.736 49.5108 90.4504 49.6683 91.174C49.8258 91.8959 50.5396 92.3563 51.2658 92.2028L52.3311 91.9759V97.5969C52.3311 97.8485 52.4015 98.0944 52.5358 98.3073L59.274 109.037C59.6678 109.665 60.4993 109.856 61.131 109.463C61.3043 109.355 61.451 109.209 61.5596 109.037L68.2978 98.3073C68.4312 98.0944 68.5025 97.8477 68.5025 97.5969V88.5273L70.1324 88.1791C70.8602 88.0257 71.3261 87.3137 71.1719 86.5893C71.0169 85.8641 70.3015 85.4012 69.5736 85.5547C69.572 85.5555 69.5695 85.5555 69.5678 85.5563L68.5025 85.7832V80.4799L70.1324 80.1326C70.8602 79.9791 71.3261 79.2671 71.1719 78.5419C71.0169 77.8175 70.3015 77.3538 69.5736 77.5081C69.572 77.5081 69.5695 77.509 69.5678 77.509L68.5025 77.7367V72.4333L70.1324 72.0852C70.8602 71.9317 71.3261 71.2197 71.1719 70.4953C71.0169 69.7701 70.3015 69.3073 69.5736 69.4607C69.572 69.4616 69.5695 69.4616 69.5678 69.4624L68.5025 69.6893V64.3859L70.1324 64.0386C70.8611 63.8852 71.3261 63.1731 71.1719 62.4488C71.0186 61.7236 70.3031 61.2607 69.5744 61.4133C69.572 61.4142 69.5703 61.415 69.5678 61.415L68.5025 61.6419V56.3386L70.1324 55.9912C70.8611 55.8378 71.3261 55.1258 71.1719 54.4014C71.0186 53.6762 70.3031 53.2133 69.5744 53.3668C69.572 53.3668 69.5703 53.3676 69.5678 53.3684L68.5025 53.5953V48.292L70.1324 47.9447C70.8602 47.7879 71.322 47.0734 71.1645 46.349C71.007 45.628 70.2932 45.1684 69.5678 45.321L68.5025 45.5479V42.6092H75.2407C75.9852 42.6092 76.5879 42.0085 76.5879 41.2676V34.5618C76.5879 34.2062 76.4461 33.8654 76.1932 33.6138L72.1502 29.5901ZM65.8074 97.213L60.4163 105.796L55.0261 97.213V91.4014L65.8066 89.102V97.213H65.8074ZM65.8074 86.3585L55.0261 88.6579V83.3545L65.8074 81.0552V86.3585ZM65.8074 78.3111L55.0261 80.6104V75.3071L65.8074 73.0077V78.3111ZM65.8074 70.2642L55.0261 72.5627V67.2602L65.8074 64.9609V70.2642ZM65.8074 62.2168L55.0261 64.5161V59.2128L65.8074 56.9134V62.2168ZM65.8074 54.1696L55.0261 56.469V51.1657L65.8074 48.8671V54.1696ZM65.8074 46.1232L55.0261 48.4226V42.6094H65.8074V46.1232ZM73.8926 39.9273H46.9399V35.1173L50.1938 31.8799H70.6396L73.8926 35.1173V39.9273Z" fill="#0E4791"/>
<path d="M75.7614 9.81805C86.5937 9.81805 93.7405 22.2747 93.7405 37.6417C93.6101 40.575 93.2806 47.0065 93.0067 49.2662C90.9251 69.5073 83.8574 67.5535 75.0598 67.5535H44.0048C30.5931 67.5535 26.7273 53.0084 26.7273 37.6417C26.7273 22.275 33.8739 9.81805 44.7065 9.81805C49.8819 9.81805 55.0585 14.7281 60.2339 14.7281C65.4093 14.7281 70.5857 9.81805 75.7614 9.81805Z" fill="white"/>
<path fill-rule="evenodd" clip-rule="evenodd" d="M84.7392 36.0444C84.7392 37.6038 83.475 38.868 81.9156 38.868C80.3562 38.868 79.0921 37.6038 79.0921 36.0444C79.0921 27.9173 77.0727 22.6381 74.8568 22.6381C73.5342 22.6381 72.6044 22.8844 71.025 23.5663C70.8421 23.6453 70.1734 23.9389 70.1632 23.9434C67.3224 25.1838 65.2742 25.7205 62.1509 25.7205C57.2793 25.7205 53.3271 24.4878 50.4113 21.9413C49.2367 20.9155 49.1161 19.1318 50.1419 17.9573C51.1676 16.7828 52.9513 16.6622 54.1259 17.6879C55.9159 19.2512 58.5519 20.0734 62.1509 20.0734C64.3806 20.0734 65.7147 19.7239 67.9034 18.7682C67.8993 18.77 68.5847 18.469 68.7867 18.3818C71.0109 17.4215 72.6358 16.9911 74.8568 16.9911C78.594 16.9911 81.283 19.5789 82.8763 23.7443C84.1197 26.9946 84.7392 31.3051 84.7392 36.0444Z" fill="#0064E8"/>
<path fill-rule="evenodd" clip-rule="evenodd" d="M78.2206 69.1062C74.8882 69.1062 49.4451 69.1062 44.1412 69.1062C38.8372 69.1062 24.3765 63.9144 24.7117 37.7237C24.931 20.5891 33.0206 8.14972 44.4677 8.14972C47.4452 8.14972 50.2654 9.48305 52.9917 10.7719C55.5016 11.9589 57.8715 13.0787 60.1081 13.0787C62.3446 13.0787 64.7146 11.9591 67.2244 10.7719C69.951 9.48305 72.7712 8.14972 75.7486 8.14972C86.7948 8.14972 94.9189 19.7317 95.4746 35.9402C95.5772 38.932 92.2838 38.932 92.1831 36.0208C91.6869 21.6745 84.9284 11.4359 75.7486 11.4359C73.5121 11.4359 71.1421 12.5555 68.6323 13.7427C65.9059 15.0318 63.0857 16.3649 60.1083 16.3649C57.1309 16.3649 54.3107 15.0315 51.5843 13.7427C49.0745 12.5557 46.7045 11.4359 44.468 11.4359C34.9289 11.4359 28.0043 22.4917 28.0043 37.724C28.0043 58.4438 39.2 65.7484 44.1412 65.7484C49.0824 65.7484 76.5877 65.8205 78.2736 65.8296C79.9595 65.8388 89.3176 65.8388 91.4809 49.2243C91.5981 48.3236 92.3814 47.6636 93.2877 47.7589C94.1916 47.8518 94.8464 48.659 94.7571 49.5613C92.8471 68.8556 81.5529 69.1062 78.2206 69.1062Z" fill="#0E4791"/>
</svg>
