<svg width="24" height="25" viewBox="0 0 24 25" fill="none" xmlns="http://www.w3.org/2000/svg">
<path d="M11.8912 21.3781C16.5304 21.3781 20.2912 17.6173 20.2912 12.9781C20.2912 8.33893 16.5304 4.57812 11.8912 4.57812C7.25202 4.57812 3.49121 8.33893 3.49121 12.9781C3.49121 17.6173 7.25202 21.3781 11.8912 21.3781Z" fill="#4C84D9" stroke="#2F448C"/>
<path d="M15.1202 15.7778C15.6209 15.7778 15.9881 15.878 16.2218 16.0783C16.4555 16.2786 16.5723 16.579 16.5723 16.9796C16.5723 17.803 16.0883 18.2147 15.1202 18.2147H9.32845C8.36038 18.2147 7.87634 17.803 7.87634 16.9796C7.87634 16.579 7.99307 16.2786 8.22685 16.0783C8.46052 15.878 8.82772 15.7778 9.32845 15.7778H10.6804V9.75242L9.34514 10.5369C9.15598 10.6482 8.96114 10.7038 8.76096 10.7038C8.44939 10.7038 8.18234 10.5703 7.95979 10.3032C7.73725 10.025 7.62598 9.71904 7.62598 9.38522C7.62598 8.92901 7.8207 8.58406 8.21016 8.35039L10.8807 6.79813C11.3703 6.51995 11.8321 6.38086 12.266 6.38086C12.7111 6.38086 13.0672 6.51439 13.3343 6.78144C13.6124 7.0485 13.7515 7.41013 13.7515 7.86635V15.7778H15.1202Z" fill="white" stroke="#2F448C" stroke-linecap="round" stroke-linejoin="round"/>
<path d="M11.8916 7.7417C12.6007 7.85079 12.7643 8.01443 12.7098 9.59624" stroke="#11C5BB" stroke-linecap="round" stroke-linejoin="round"/>
</svg>
