<svg width="24" height="25" viewBox="0 0 24 25" fill="none" xmlns="http://www.w3.org/2000/svg">
<path d="M15.1779 3.85156C17.3444 3.85156 18.7738 6.34287 18.7738 9.41629C18.7738 10.4147 18.7073 10.9601 18.6269 11.7411C18.2107 15.7894 16.9375 22.1824 15.1779 22.1824C13.9141 22.1824 14.0974 14.1333 12.0724 14.1259C10.3744 14.1332 10.2308 22.1824 8.96695 22.1824C6.8004 22.1824 5.37109 12.4896 5.37109 9.41629C5.37109 6.34298 6.8004 3.85156 8.96695 3.85156C10.002 3.85156 11.0374 4.8336 12.0724 4.8336C13.1075 4.8336 14.1428 3.85156 15.1779 3.85156Z" fill="white"/>
<path d="M18.769 9.74378C18.7721 9.62771 18.7738 9.5184 18.7738 9.41629C18.7738 6.34287 17.3444 3.85156 15.1779 3.85156C14.1428 3.85156 13.1075 4.8336 12.0724 4.8336C11.0374 4.8336 10.002 3.85156 8.96695 3.85156C6.8004 3.85156 5.37109 6.34287 5.37109 9.41629C5.37109 12.4896 6.80051 22.1824 8.96695 22.1824C10.2308 22.1824 10.3744 14.1332 12.0724 14.1259C14.0974 14.1333 13.9141 22.1824 15.1779 22.1824C16.9375 22.1824 18.2107 15.7894 18.6269 11.7411" stroke="#2F448C" stroke-linecap="round" stroke-linejoin="round"/>
<path d="M18.2723 7.95996C19.9292 7.95996 21.2723 6.61683 21.2723 4.95996C21.2723 3.30309 19.9292 1.95996 18.2723 1.95996C16.6154 1.95996 15.2723 3.30309 15.2723 4.95996C15.2723 5.71814 15.5535 6.41054 16.0174 6.93876C16.1362 7.07403 16.2132 7.24389 16.2132 7.424V8.61451L17.143 8.00054C17.3055 7.8932 17.5067 7.868 17.6979 7.90498C17.8838 7.94098 18.0758 7.95996 18.2723 7.95996Z" fill="#11C5BB" stroke="#2F448C"/>
<path d="M19.2537 4.57812C19.3549 4.57813 19.452 4.61835 19.5236 4.68996C19.5952 4.76156 19.6355 4.85868 19.6355 4.95994C19.6355 5.06121 19.5952 5.15832 19.5236 5.22993C19.452 5.30153 19.3549 5.34176 19.2537 5.34176H17.29C17.1888 5.34176 17.0916 5.30153 17.02 5.22993C16.9484 5.15832 16.9082 5.06121 16.9082 4.95994C16.9082 4.85868 16.9484 4.76156 17.02 4.68996C17.0916 4.61835 17.1888 4.57813 17.29 4.57812H19.2537Z" fill="white"/>
</svg>
