<svg width="24" height="25" viewBox="0 0 24 25" fill="none" xmlns="http://www.w3.org/2000/svg">
<path d="M20.5091 10.9053H3.49089C3.18964 10.9053 2.94543 11.1495 2.94543 11.4507V18.5416C2.94543 18.8429 3.18964 19.0871 3.49089 19.0871H20.5091C20.8103 19.0871 21.0545 18.8429 21.0545 18.5416V11.4507C21.0545 11.1495 20.8103 10.9053 20.5091 10.9053Z" fill="#4C84D9" stroke="#2F448C"/>
<path d="M10.6068 13.0804L10.63 13.022V12.9593C10.63 12.1824 10.7826 11.8276 10.9555 11.4255L10.9586 11.4184L10.9593 11.4167C11.0966 11.0976 11.248 10.7455 11.345 10.157H11.3451C11.4361 9.60456 11.3978 9.05692 11.2479 8.59481C11.1004 8.1399 10.8327 7.73518 10.4376 7.52168C10.0304 7.28278 9.74864 7.13965 9.37195 7.13965C9.09639 7.13965 8.76562 7.21787 8.34955 7.32881C8.21253 7.36481 8.08643 7.38903 7.96326 7.40354C7.83287 7.38781 7.70375 7.36292 7.57686 7.32903C7.16035 7.21787 6.8297 7.13965 6.55424 7.13965C6.17788 7.13965 5.89643 7.28256 5.49584 7.51787C5.09799 7.73278 4.82821 8.13761 4.67952 8.59361C4.52843 9.05659 4.49013 9.60445 4.58112 10.1569C4.6769 10.7379 4.82766 11.089 4.96446 11.4067L4.96501 11.408L4.96795 11.415C5.14217 11.8203 5.29599 12.1781 5.29599 12.9593V12.9973L5.30472 13.0342C5.42908 13.5636 5.82464 13.9228 6.29101 14.1407C6.75672 14.3582 7.32584 14.4532 7.88559 14.4459C8.44643 14.4386 9.02264 14.3284 9.50712 14.1124C9.98712 13.8984 10.4148 13.5622 10.6068 13.0804Z" fill="white" stroke="#2F448C"/>
<path d="M18.838 13.0804L18.8613 13.022V12.9593C18.8613 12.1824 19.0139 11.8276 19.1868 11.4255L19.1899 11.4184L19.1906 11.4167C19.3278 11.0976 19.4793 10.7455 19.5763 10.157C19.6673 9.60456 19.6291 9.05692 19.4793 8.59481C19.3317 8.1399 19.0639 7.73518 18.6688 7.52168C18.2617 7.28278 17.98 7.13965 17.6033 7.13965C17.3277 7.13965 16.997 7.21787 16.5809 7.32881C16.454 7.36271 16.3249 7.38768 16.1945 7.40354C16.0641 7.38781 15.935 7.36292 15.8081 7.32903C15.3917 7.21787 15.061 7.13965 14.7855 7.13965C14.4091 7.13965 14.1277 7.28256 13.7271 7.51787C13.3294 7.73278 13.0595 8.13761 12.9108 8.59361C12.7597 9.05659 12.7214 9.60445 12.8124 10.1569C12.9082 10.7379 13.059 11.089 13.1957 11.4067L13.1963 11.408L13.1992 11.415C13.3734 11.8204 13.5273 12.1782 13.5273 12.9593V12.9973L13.5359 13.0342C13.6603 13.5636 14.0559 13.9228 14.5224 14.1407C14.988 14.3582 15.5571 14.4532 16.1169 14.4459C16.6777 14.4386 17.254 14.3284 17.7384 14.1124C18.2185 13.8984 18.6461 13.5622 18.838 13.0804Z" fill="white" stroke="#2F448C"/>
</svg>
