<svg width="24" height="25" viewBox="0 0 24 25" fill="none" xmlns="http://www.w3.org/2000/svg">
<path fill-rule="evenodd" clip-rule="evenodd" d="M14.4562 9.53516C13.0076 9.53516 12.1243 10.8085 12.1243 10.8085C12.1243 10.8085 11.241 9.53516 9.79224 9.53516C8.34351 9.53516 6.01518 11.405 3.36133 11.405C5.23409 15.025 8.15718 18.6089 12.1243 18.6089C16.3725 18.6089 19.0146 15.025 20.8873 11.405C18.1363 11.405 15.905 9.53516 14.4562 9.53516Z" fill="#4C84D9"/>
<path fill-rule="evenodd" clip-rule="evenodd" d="M10.9472 15.5287C7.52478 14.9606 5.08126 12.0848 3.36133 11.4004C5.27227 11.6358 8.07656 12.9261 12.1243 12.9261C16.459 12.9261 18.9764 11.6358 20.8873 11.4004C19.1473 12.0928 16.9047 15.0278 13.2454 15.5476C13.2454 15.5476 12.5725 15.6265 12.1347 15.6265C11.6969 15.6265 10.9472 15.5287 10.9472 15.5287Z" fill="white"/>
<path fill-rule="evenodd" clip-rule="evenodd" d="M21.2076 11.2099C21.1757 11.1578 21.1309 11.1148 21.0776 11.0849C21.0242 11.0551 20.9641 11.0395 20.903 11.0395C19.3816 11.0395 18.0274 10.4393 16.8325 9.90987C15.9277 9.50885 15.1463 9.1626 14.4602 9.1626C13.3393 9.1626 12.5297 9.82009 12.1239 10.2446C11.7182 9.8202 10.9087 9.1626 9.78763 9.1626C9.09621 9.1626 8.29145 9.51409 7.3596 9.92111C6.1596 10.4453 4.79923 11.0394 3.34505 11.0394C3.22058 11.0394 3.10505 11.1041 3.04025 11.2099C3.00843 11.2619 2.99056 11.3213 2.98836 11.3823C2.98616 11.4432 2.99971 11.5037 3.02771 11.5579C4.77643 14.9449 7.77392 18.9821 12.1239 18.9821C16.8415 18.9821 19.5747 14.7451 21.2203 11.558C21.2482 11.5038 21.2618 11.4433 21.2596 11.3824C21.2573 11.3214 21.2394 11.262 21.2076 11.21V11.2099ZM7.64607 10.5728C8.5044 10.198 9.24567 9.8742 9.78752 9.8742C11.0276 9.8742 11.8229 10.988 11.8303 10.9985C11.8631 11.0459 11.907 11.0847 11.9582 11.1115C12.0093 11.1383 12.0662 11.1523 12.1239 11.1523C12.1817 11.1523 12.2385 11.1383 12.2897 11.1115C12.3408 11.0847 12.3847 11.0459 12.4176 10.9985C12.4255 10.9873 13.2107 9.8742 14.4602 9.8742C14.9948 9.8742 15.7121 10.192 16.5427 10.5601C17.2453 10.8714 18.049 11.2274 18.9311 11.4683L18.6647 11.5409C17.0237 11.9884 14.9816 12.5453 12.1239 12.5453C9.47345 12.5453 7.36701 11.9924 5.67447 11.5482C5.55436 11.5167 5.43665 11.4859 5.32101 11.4558C6.16952 11.2177 6.95629 10.8741 7.64607 10.5728ZM12.1239 18.2706C8.57258 18.2706 5.95309 15.2385 4.25105 12.308C4.56043 12.5158 4.89163 12.7566 5.24476 13.0135C6.73341 14.0966 8.58622 15.4445 10.8869 15.8207C10.9802 15.8361 11.0758 15.8139 11.1526 15.7588C11.2295 15.7038 11.2814 15.6205 11.2969 15.5273C11.3044 15.4811 11.3028 15.4339 11.2921 15.3884C11.2814 15.3428 11.2618 15.2999 11.2344 15.2619C11.2071 15.224 11.1725 15.1918 11.1327 15.1672C11.0929 15.1426 11.0487 15.1261 11.0025 15.1186C8.86963 14.7698 7.09298 13.4773 5.66541 12.4387C5.55021 12.3548 5.43741 12.2729 5.32647 12.1927L5.49261 12.2363C7.22498 12.691 9.38116 13.2569 12.1239 13.2569C15.0775 13.2569 17.1709 12.686 18.853 12.2273L18.9613 12.1977C18.8614 12.2728 18.7598 12.3495 18.6564 12.4277C17.2508 13.4907 15.5016 14.8136 13.1975 15.136C13.1512 15.1424 13.1065 15.1579 13.0662 15.1816C13.0258 15.2052 12.9905 15.2366 12.9623 15.2739C12.9341 15.3112 12.9135 15.3537 12.9017 15.399C12.89 15.4443 12.8872 15.4914 12.8937 15.5378C12.907 15.6313 12.957 15.7158 13.0325 15.7725C13.1081 15.8293 13.2031 15.8538 13.2967 15.8406C15.7848 15.4925 17.6162 14.1075 19.0877 12.9946C19.409 12.7517 19.7112 12.5231 19.996 12.3242C18.4 15.1375 15.9457 18.2706 12.1239 18.2706Z" fill="#2F448C"/>
<path fill-rule="evenodd" clip-rule="evenodd" d="M12.6833 17.3662C12.6174 17.3672 12.552 17.3551 12.4908 17.3305C12.4296 17.306 12.3739 17.2695 12.327 17.2232C12.28 17.177 12.2428 17.1218 12.2173 17.061C12.1918 17.0002 12.1787 16.935 12.1787 16.869C12.1787 16.8031 12.1918 16.7379 12.2173 16.6771C12.2428 16.6163 12.28 16.5611 12.327 16.5148C12.3739 16.4686 12.4296 16.4321 12.4908 16.4076C12.552 16.383 12.6174 16.3709 12.6833 16.3719C13.6972 16.3719 14.8593 16.1064 15.4546 15.7096C15.5643 15.6378 15.698 15.6122 15.8264 15.6385C15.9549 15.6648 16.0678 15.7407 16.1406 15.8499C16.2133 15.959 16.24 16.0924 16.2148 16.2211C16.1896 16.3498 16.1146 16.4634 16.0061 16.537C15.2237 17.0586 13.8766 17.3662 12.6833 17.3662Z" fill="#11C5BB"/>
<path d="M22.2545 12.2701C22.2545 12.402 22.2021 12.5285 22.1089 12.6217C22.0157 12.715 21.8892 12.7674 21.7574 12.7674C21.0583 12.7674 19.7686 11.3603 19.7686 10.2814C19.7686 10.1495 19.8209 10.0231 19.9142 9.92982C20.0074 9.83657 20.1339 9.78418 20.2658 9.78418C20.3977 9.78418 20.5241 9.83657 20.6174 9.92982C20.7106 10.0231 20.763 10.1495 20.763 10.2814C20.763 10.5792 20.9574 10.9555 21.2848 11.3127C21.4231 11.4635 21.5748 11.5987 21.7094 11.6953C21.7633 11.7341 21.8101 11.7633 21.8435 11.7804C21.9586 11.8007 22.063 11.8609 22.1381 11.9505C22.2133 12.04 22.2545 12.1532 22.2545 12.2701Z" fill="#2F448C"/>
<path d="M1.74512 12.2702C1.74512 12.4021 1.7975 12.5285 1.89075 12.6218C1.984 12.715 2.11048 12.7674 2.24235 12.7674C2.94141 12.7674 4.23108 11.3604 4.23108 10.2815C4.23206 10.2155 4.21992 10.1501 4.19537 10.0889C4.17082 10.0277 4.13436 9.97206 4.08809 9.92511C4.04183 9.87815 3.98669 9.84086 3.92588 9.81541C3.86508 9.78996 3.79982 9.77686 3.7339 9.77686C3.66798 9.77686 3.60272 9.78996 3.54191 9.81541C3.48111 9.84086 3.42597 9.87815 3.37971 9.92511C3.33344 9.97206 3.29697 10.0277 3.27243 10.0889C3.24788 10.1501 3.23574 10.2155 3.23672 10.2815C3.23672 10.5793 3.04232 10.9555 2.71483 11.3127C2.57661 11.4636 2.42497 11.5987 2.29024 11.6954C2.23646 11.7341 2.18955 11.7633 2.15617 11.7805C2.04101 11.8007 1.93668 11.8609 1.8615 11.9505C1.78633 12.0401 1.74512 12.1533 1.74512 12.2702Z" fill="#2F448C"/>
</svg>
