<svg width="24" height="25" viewBox="0 0 24 25" fill="none" xmlns="http://www.w3.org/2000/svg">
<path d="M4.25926 5.39648C3.68479 5.39648 3.21777 5.86318 3.21777 6.43776V16.2871C3.21777 16.8617 3.68479 17.3284 4.25926 17.3284H19.7502C20.3246 17.3284 20.7917 16.8617 20.7917 16.2871V6.43776C20.7917 5.86318 20.3246 5.39648 19.7502 5.39648H4.25926Z" fill="#4C84D9" stroke="#2F448C"/>
<path d="M10.1671 19.5186V19.9005H14.1317V17.373H10.1671V19.5186Z" fill="white" stroke="#2F448C"/>
<path d="M8.22668 20.3967V20.7785H15.9918V19.8299C15.9918 19.389 15.6282 19.0449 15.198 19.0449H9.02043C8.59007 19.0449 8.22668 19.3891 8.22668 19.8299V20.3967Z" fill="white" stroke="#2F448C"/>
<path fill-rule="evenodd" clip-rule="evenodd" d="M19.2945 8.92431H16.2093C16.0224 8.92431 15.8711 8.78391 15.8711 8.61078C15.8711 8.43765 16.0224 8.29736 16.2093 8.29736H19.2945C19.4812 8.29736 19.6327 8.43765 19.6327 8.61078C19.6327 8.78391 19.4812 8.92431 19.2945 8.92431Z" fill="#2F448C"/>
<path fill-rule="evenodd" clip-rule="evenodd" d="M17.8195 10.3867H16.2214C16.028 10.3867 15.8711 10.2463 15.8711 10.0732C15.8711 9.90006 16.028 9.75977 16.2214 9.75977H17.8195C18.013 9.75977 18.1697 9.90006 18.1697 10.0732C18.1697 10.2463 18.013 10.3867 17.8195 10.3867Z" fill="#2F448C"/>
<path fill-rule="evenodd" clip-rule="evenodd" d="M7.80046 12.6161H4.71526C4.52849 12.6161 4.37708 12.4758 4.37708 12.3027C4.37708 12.1295 4.52849 11.9893 4.71526 11.9893H7.80046C7.98722 11.9893 8.13864 12.1295 8.13864 12.3027C8.13864 12.4758 7.98722 12.6161 7.80046 12.6161Z" fill="#2F448C"/>
<path fill-rule="evenodd" clip-rule="evenodd" d="M6.32544 14.0791H4.72737C4.53406 14.0791 4.37708 13.9387 4.37708 13.7656C4.37708 13.5924 4.53406 13.4521 4.72737 13.4521H6.32555C6.51897 13.4521 6.67573 13.5924 6.67573 13.7656C6.67573 13.9387 6.51897 14.0791 6.32555 14.0791H6.32544Z" fill="#2F448C"/>
<path d="M18.3991 12.2183C18.2108 12.2184 18.0303 12.2932 17.8972 12.4263C17.7641 12.5595 17.6893 12.74 17.6892 12.9282C17.6894 13.1165 17.7642 13.2969 17.8973 13.43C18.0304 13.5631 18.2109 13.638 18.3991 13.6381C18.5873 13.6379 18.7678 13.5631 18.9009 13.43C19.034 13.2969 19.1088 13.1164 19.1089 12.9282C19.1088 12.74 19.034 12.5595 18.9009 12.4264C18.7678 12.2933 18.5873 12.2184 18.3991 12.2183Z" fill="#11C5BB" stroke="#2F448C"/>
<path d="M5.74501 7.2041C5.55677 7.20425 5.37628 7.2791 5.24319 7.41221C5.11009 7.54533 5.03527 7.72583 5.03516 7.91407C5.0353 8.10229 5.11014 8.28276 5.24323 8.41585C5.37632 8.54894 5.55679 8.62377 5.74501 8.62392C5.93323 8.62377 6.1137 8.54894 6.24679 8.41585C6.37989 8.28276 6.45472 8.10229 6.45487 7.91407C6.45475 7.72583 6.37993 7.54533 6.24683 7.41221C6.11374 7.2791 5.93325 7.20425 5.74501 7.2041Z" fill="#11C5BB" stroke="#2F448C"/>
<path fill-rule="evenodd" clip-rule="evenodd" d="M8.5552 9.48143C8.51093 9.48143 8.46704 9.47315 8.42582 9.45699L6.39913 8.66249C6.22262 8.59321 6.13742 8.39849 6.20887 8.22743C6.28033 8.05638 6.4816 7.97379 6.658 8.04307L8.68469 8.83736C8.86131 8.90674 8.94651 9.10136 8.87506 9.27263C8.82073 9.40245 8.69156 9.48132 8.5552 9.48132V9.48143Z" fill="#2F448C"/>
<path fill-rule="evenodd" clip-rule="evenodd" d="M17.6102 13.0741C17.5456 13.0742 17.4821 13.057 17.4264 13.0242L13.9475 10.9749C13.7829 10.878 13.7319 10.6725 13.8336 10.5156C13.9353 10.359 14.1513 10.3104 14.3157 10.4073L17.7946 12.4565C17.9592 12.5533 18.0101 12.759 17.9085 12.9158C17.8421 13.018 17.7275 13.0741 17.6102 13.0741Z" fill="#2F448C"/>
<path fill-rule="evenodd" clip-rule="evenodd" d="M11.9418 14.1579C12.6335 14.1579 13.1941 13.5964 13.1941 12.9039C13.1941 12.2114 12.6335 11.6499 11.9418 11.6499C11.2502 11.6499 10.6895 12.2114 10.6895 12.9039C10.6895 13.5964 11.2502 14.1579 11.9418 14.1579Z" fill="#11C5BB"/>
<path fill-rule="evenodd" clip-rule="evenodd" d="M14.9591 9.95684C14.9605 9.90448 14.9613 9.85539 14.9613 9.80924C14.9613 8.56048 14.3171 7.51953 13.3407 7.51953C12.8741 7.51953 12.4076 7.96211 11.9411 7.96211C11.4746 7.96211 11.008 7.51953 10.5414 7.51953C9.56508 7.51953 8.9209 8.6424 8.9209 10.0275C8.9209 11.4125 9.56508 15.781 10.5414 15.781C11.1111 15.781 11.1758 12.1533 11.9411 12.15C12.8537 12.1533 12.7712 15.781 13.3407 15.781C14.1337 15.781 14.7075 13.0088 14.8952 11.1843" fill="white"/>
<path d="M14.9591 9.95684C14.9605 9.90448 14.9613 9.85539 14.9613 9.80924C14.9613 8.56048 14.3171 7.51953 13.3407 7.51953C12.8741 7.51953 12.4076 7.96211 11.9411 7.96211C11.4746 7.96211 11.008 7.51953 10.5414 7.51953C9.56508 7.51953 8.9209 8.6424 8.9209 10.0275C8.9209 11.4125 9.56508 15.781 10.5414 15.781C11.1111 15.781 11.1758 12.1533 11.9411 12.15C12.8537 12.1533 12.7712 15.781 13.3407 15.781C14.1337 15.781 14.7075 13.0088 14.8952 11.1843" stroke="#2F448C" stroke-linecap="round"/>
</svg>
