<svg width="24" height="25" viewBox="0 0 24 25" fill="none" xmlns="http://www.w3.org/2000/svg">
<path d="M15.0697 3.41504C17.2361 3.41504 18.6655 5.90635 18.6655 8.97977C18.6655 9.97817 18.5991 10.5236 18.5187 11.3046C18.1024 15.3529 16.8292 21.7459 15.0697 21.7459C13.8059 21.7459 13.9891 13.6967 11.9642 13.6893C10.2662 13.6966 10.1225 21.7459 8.8587 21.7459C6.69216 21.7459 5.26285 12.0531 5.26285 8.97977C5.26285 5.90635 6.69216 3.41504 8.8587 3.41504C9.89376 3.41504 10.9291 4.39697 11.9642 4.39697C12.9992 4.39697 14.0345 3.41504 15.0697 3.41504Z" fill="white"/>
<path d="M18.6607 9.30726C18.6639 9.19118 18.6655 9.08188 18.6655 8.97977C18.6655 5.90635 17.2361 3.41504 15.0697 3.41504C14.0345 3.41504 12.9992 4.39697 11.9642 4.39697C10.9291 4.39697 9.89376 3.41504 8.8587 3.41504C6.69216 3.41504 5.26285 5.90635 5.26285 8.97977C5.26285 12.0531 6.69227 21.7459 8.8587 21.7459C10.1225 21.7459 10.2662 13.6966 11.9642 13.6893C13.9891 13.6967 13.8059 21.7459 15.0697 21.7459C16.8292 21.7459 18.1024 15.3529 18.5187 11.3046" stroke="#2F448C" stroke-linecap="round" stroke-linejoin="round"/>
<path d="M2.94547 9.59644C2.94547 9.77004 3.01443 9.93652 3.13718 10.0593C3.25993 10.182 3.42641 10.251 3.60001 10.251H20.2909C20.4645 10.251 20.631 10.182 20.7538 10.0593C20.8765 9.93652 20.9455 9.77004 20.9455 9.59644C20.9455 9.42284 20.8765 9.25636 20.7538 9.13361C20.631 9.01086 20.4645 8.94189 20.2909 8.94189H3.60001C3.42641 8.94189 3.25993 9.01086 3.13718 9.13361C3.01443 9.25636 2.94547 9.42284 2.94547 9.59644Z" fill="#4C84D9" stroke="#2F448C"/>
<path d="M15.1636 7.30566H8.72728C8.60678 7.30566 8.50909 7.40335 8.50909 7.52385V11.6693C8.50909 11.7898 8.60678 11.8875 8.72728 11.8875H15.1636C15.2841 11.8875 15.3818 11.7898 15.3818 11.6693V7.52385C15.3818 7.40335 15.2841 7.30566 15.1636 7.30566Z" fill="#11C5BB"/>
<path d="M8.50909 9.26921V9.92376H9.70909V10.4692C9.70909 10.556 9.74357 10.6393 9.80495 10.7006C9.86633 10.762 9.94957 10.7965 10.0364 10.7965H10.6909C10.7777 10.7965 10.861 10.762 10.9223 10.7006C10.9837 10.6393 11.0182 10.556 11.0182 10.4692V9.92376H12.7636V10.4692C12.7636 10.556 12.7981 10.6393 12.8595 10.7006C12.9209 10.762 13.0041 10.7965 13.0909 10.7965H13.7455C13.8323 10.7965 13.9155 10.762 13.9769 10.7006C14.0383 10.6393 14.0727 10.556 14.0727 10.4692V9.92376H15.3818V9.26921H14.0727V8.72376C14.0727 8.63696 14.0383 8.55372 13.9769 8.49234C13.9155 8.43096 13.8323 8.39648 13.7455 8.39648H13.0909C13.0041 8.39648 12.9209 8.43096 12.8595 8.49234C12.7981 8.55372 12.7636 8.63696 12.7636 8.72376V9.26921H11.0182V8.72376C11.0182 8.63696 10.9837 8.55372 10.9223 8.49234C10.861 8.43096 10.7777 8.39648 10.6909 8.39648H10.0364C9.94957 8.39648 9.86633 8.43096 9.80495 8.49234C9.74357 8.55372 9.70909 8.63696 9.70909 8.72376V9.26921H8.50909Z" fill="#2F448C"/>
</svg>
