<svg width="24" height="25" viewBox="0 0 24 25" fill="none" xmlns="http://www.w3.org/2000/svg">
<path d="M4.64195 18.684L4.6545 18.6966C4.9377 18.9648 5.30184 19.0867 5.7141 19.0867H12.6074C13.0625 19.0867 13.4657 18.9987 13.7517 18.7604C14.0513 18.5108 14.1698 18.1403 14.1698 17.7246C14.1698 17.3159 14.049 16.9531 13.7517 16.7053C13.4657 16.467 13.0625 16.3791 12.6074 16.3791H8.35835L13.556 9.205L13.5565 9.20435C13.8054 8.86344 13.9362 8.48544 13.9362 8.07722C13.9362 7.6858 13.8006 7.3438 13.5233 7.07795C13.2504 6.79377 12.8877 6.66504 12.4739 6.66504H5.83093C5.37603 6.66504 4.97272 6.75286 4.68679 6.99122C4.38723 7.24082 4.26853 7.6114 4.26853 8.02715C4.26853 8.43569 4.38941 8.79853 4.68679 9.04628L4.89057 8.80169L4.68679 9.04628C4.97272 9.28464 5.37592 9.37246 5.83093 9.37246H9.83086L4.64883 16.5467C4.39224 16.8938 4.25195 17.2716 4.25195 17.6746C4.25195 18.0635 4.37992 18.4074 4.64206 18.6841L4.64195 18.684ZM14.4752 21.0161C14.4792 21.0203 14.4834 21.0245 14.4876 21.0286C14.6651 21.1967 14.8903 21.2685 15.1301 21.2685H18.5767C18.8203 21.2685 19.0677 21.2223 19.2536 21.0674C19.453 20.9013 19.5215 20.6615 19.5215 20.4238C19.5215 20.1876 19.4507 19.9527 19.2536 19.7885C19.0677 19.6335 18.8203 19.5874 18.5767 19.5874H16.7728L19.1831 16.2606L19.1836 16.2599C19.3267 16.0638 19.4047 15.8414 19.4047 15.6001C19.4047 15.3644 19.3219 15.1505 19.1503 14.9847C18.9777 14.8064 18.7514 14.7303 18.5099 14.7303H15.1884C14.9448 14.7303 14.6974 14.7765 14.5116 14.9314C14.3121 15.0977 14.2436 15.3374 14.2436 15.575C14.2436 15.8112 14.3144 16.0461 14.5116 16.2104C14.6974 16.3653 14.9448 16.4114 15.1884 16.4114H16.8683L14.4652 19.7383C14.3198 19.9352 14.2353 20.1572 14.2353 20.3987C14.2353 20.6318 14.3132 20.845 14.4752 21.0161Z" fill="white" stroke="#2F448C" stroke-linecap="round" stroke-linejoin="round"/>
<path d="M6.81906 15.1592C5.61906 16.7955 5.01906 17.4501 5.34633 17.7228" stroke="#11C5BB" stroke-linecap="round" stroke-linejoin="round"/>
</svg>
