<svg width="24" height="25" viewBox="0 0 24 25" fill="none" xmlns="http://www.w3.org/2000/svg">
<path d="M9.58117 13.8725C9.62946 13.8939 9.68221 13.9033 9.73492 13.8999C9.78763 13.8965 9.83873 13.8804 9.88386 13.8529C9.92898 13.8255 9.96679 13.7875 9.99406 13.7423C10.0213 13.6971 10.0372 13.6459 10.0404 13.5932C10.1168 12.3369 11.1603 11.3413 12.436 11.3413C13.7614 11.3413 14.836 12.4159 14.836 13.7413C14.836 14.0107 14.7918 14.269 14.7104 14.5097C14.6935 14.5597 14.689 14.613 14.6971 14.6651C14.7053 14.7172 14.7259 14.7666 14.7572 14.809C14.7886 14.8514 14.8297 14.8856 14.8771 14.9087C14.9245 14.9318 14.9768 14.9431 15.0295 14.9416C15.1461 14.9383 15.2622 14.9585 15.371 15.0008C15.4797 15.0432 15.5788 15.1069 15.6625 15.1883C15.7462 15.2696 15.8127 15.3669 15.8581 15.4744C15.9035 15.5818 15.9269 15.6974 15.9269 15.814C15.9269 16.3525 15.6713 16.6945 15.3117 16.7351C13.7829 16.7242 12.2527 16.7279 10.7244 16.7315C9.97444 16.7333 9.22499 16.7351 8.4764 16.7352C7.85 16.5335 7.41779 15.9559 7.41779 15.277C7.41779 14.4311 8.10789 13.7413 8.95695 13.7413C9.17709 13.7413 9.38873 13.7872 9.58117 13.8725Z" fill="white" stroke="#2F448C" stroke-linecap="round" stroke-linejoin="round"/>
<path fill-rule="evenodd" clip-rule="evenodd" d="M15.4045 8.44984C15.2532 8.53253 15.2532 8.74984 15.4045 8.83264L16.0348 9.17736C16.0969 9.21118 16.1477 9.26213 16.1816 9.3242L16.5264 9.95453C16.6092 10.1058 16.8265 10.1058 16.9092 9.95453L17.2539 9.3242C17.2878 9.26221 17.3388 9.21128 17.4009 9.17747L18.0312 8.83264C18.1825 8.74984 18.1825 8.53264 18.0312 8.44973L17.4009 8.105C17.3389 8.07113 17.2879 8.02021 17.2539 7.95827L16.9093 7.32784C16.8265 7.17653 16.6092 7.17653 16.5264 7.32784L16.1816 7.95827C16.1477 8.02029 16.0968 8.07126 16.0348 8.10511L15.4045 8.44984Z" fill="#11C5BB"/>
<path d="M18.2205 19.2536C18.4194 19.2061 18.6119 19.2955 18.7118 19.4287C18.7599 19.4928 18.7745 19.5515 18.7723 19.5935C18.7704 19.6284 18.7562 19.6788 18.6866 19.7379C17.089 21.0925 15.022 21.9093 12.7632 21.9093C7.7023 21.9093 3.59961 17.8066 3.59961 12.7456C3.59961 9.7523 5.03448 7.0943 7.25525 5.42139C7.32856 5.3663 7.3807 5.36357 7.41474 5.36924C7.45554 5.37612 7.50877 5.40284 7.55983 5.46306C7.66608 5.58786 7.71048 5.79372 7.61983 5.9771C7.0015 7.22881 6.65415 8.63815 6.65415 10.1276C6.65415 15.309 10.8546 19.5093 16.036 19.5093C16.7877 19.5093 17.5192 19.4208 18.2205 19.2536Z" fill="#4C84D9" stroke="#2F448C" stroke-linecap="round" stroke-linejoin="round"/>
</svg>
