<svg width="24" height="25" viewBox="0 0 24 25" fill="none" xmlns="http://www.w3.org/2000/svg">
<path fill-rule="evenodd" clip-rule="evenodd" d="M11.528 21.4917C8.31187 20.5523 4.03638 18.6587 4.03638 13.0806V7.01499C4.03638 6.41237 4.57409 5.95201 5.1694 6.04485L6.12634 6.19397C6.39067 6.23521 6.67147 6.25616 6.96001 6.25616C7.35023 6.25616 7.75179 6.21819 8.15369 6.14314C9.23019 5.94328 10.2075 5.49601 10.7684 4.94663L11.349 4.37805C11.5325 4.1983 11.7791 4.09764 12.036 4.09766C12.2929 4.09768 12.5396 4.19838 12.7231 4.37816L13.3033 4.94663C13.8637 5.49601 14.8406 5.94372 15.9176 6.14357C16.3111 6.21751 16.7105 6.25519 17.1109 6.25616C17.3998 6.25616 17.6808 6.23521 17.9449 6.19397L18.9022 6.04496C19.4975 5.95223 20.0351 6.41259 20.0351 7.0151V13.0806C20.0351 18.6587 15.7594 20.5523 12.5433 21.4917L12.3112 21.5594C12.1315 21.612 11.9404 21.6121 11.7606 21.5595L11.528 21.4917Z" fill="#4C84D9" stroke="#2F448C"/>
<path d="M13.9262 7.39062C15.2154 7.39062 16.0658 8.87022 16.0658 10.6954C16.0658 11.2884 16.0263 11.6123 15.9784 12.0762C15.7308 14.4803 14.9732 18.277 13.9262 18.277C13.1743 18.277 13.2834 13.4968 12.0784 13.4924C11.068 13.4968 10.9826 18.277 10.2307 18.277C8.94154 18.277 8.09106 12.5206 8.09106 10.6954C8.09106 8.87033 8.94154 7.39062 10.2307 7.39062C10.8465 7.39062 11.4625 7.97382 12.0784 7.97382C12.6944 7.97382 13.3103 7.39062 13.9262 7.39062Z" fill="white"/>
<path d="M16.063 10.8899C16.0648 10.821 16.0658 10.7561 16.0658 10.6954C16.0658 8.87022 15.2154 7.39062 13.9262 7.39062C13.3103 7.39062 12.6944 7.97382 12.0784 7.97382C11.4625 7.97382 10.8465 7.39062 10.2307 7.39062C8.94154 7.39062 8.09106 8.87022 8.09106 10.6954C8.09106 12.5206 8.94154 18.277 10.2307 18.277C10.9826 18.277 11.068 13.4968 12.0784 13.4924C13.2834 13.4968 13.1743 18.277 13.9262 18.277C14.9732 18.277 15.7308 14.4803 15.9784 12.0762" stroke="#2F448C" stroke-linecap="round" stroke-linejoin="round"/>
<path fill-rule="evenodd" clip-rule="evenodd" d="M15.0902 10.3967C15.0902 10.5314 14.9854 10.6406 14.8559 10.6406C14.7265 10.6406 14.6217 10.5314 14.6217 10.3967C14.6217 9.69472 14.454 9.23872 14.2702 9.23872C14.1604 9.23872 14.0832 9.25999 13.9522 9.3189L13.8806 9.35152C13.6449 9.45865 13.4749 9.50501 13.2157 9.50501C12.8115 9.50501 12.4835 9.39854 12.2415 9.17861C12.1441 9.08992 12.1341 8.93589 12.2192 8.83443C12.2389 8.81044 12.2632 8.79071 12.2908 8.77646C12.3184 8.76221 12.3485 8.75374 12.3795 8.75156C12.4105 8.74939 12.4415 8.75356 12.4708 8.76381C12.5001 8.77406 12.527 8.79019 12.5498 8.81119C12.6983 8.94614 12.9171 9.01727 13.2157 9.01727C13.4008 9.01727 13.5115 8.98705 13.6931 8.90447L13.7664 8.87109C13.951 8.78818 14.0858 8.75098 14.2702 8.75098C14.5803 8.75098 14.8034 8.9745 14.9356 9.33429C15.0388 9.61498 15.0902 9.98741 15.0902 10.3967Z" fill="#11C5BB"/>
</svg>
