<svg width="24" height="25" viewBox="0 0 24 25" fill="none" xmlns="http://www.w3.org/2000/svg">
<path fill-rule="evenodd" clip-rule="evenodd" d="M15.3663 10.9604L15.284 11.678C15.2513 11.8169 15.1726 11.9406 15.0608 12.0291C14.9489 12.1176 14.8104 12.1657 14.6678 12.1656H10.0417C9.89902 12.1657 9.76051 12.1176 9.64862 12.0291C9.53674 11.9406 9.45804 11.8169 9.42531 11.678L9.34305 10.9604H7.02051V19.8238C7.02051 20.4561 7.53433 20.9689 8.16825 20.9689H16.5411C17.175 20.9689 17.6888 20.4561 17.6888 19.8238V10.9604H15.3663Z" fill="#4C84D9" stroke="#2F448C" stroke-linecap="round" stroke-linejoin="round"/>
<path d="M13.25 13.6035C13.9281 13.6035 14.3755 14.3865 14.3755 15.3525C14.3755 15.6662 14.3547 15.8376 14.3295 16.0832C14.1992 17.3554 13.8007 19.3646 13.25 19.3646C12.8544 19.3646 12.9118 16.8349 12.2781 16.8326C11.7466 16.8349 11.7017 19.3646 11.3061 19.3646C10.6281 19.3646 10.1807 16.3184 10.1807 15.3525C10.1807 14.3865 10.628 13.6035 11.3061 13.6035C11.6301 13.6035 11.9541 13.9121 12.2781 13.9121C12.602 13.9121 12.926 13.6035 13.25 13.6035Z" fill="white"/>
<path d="M14.374 15.4553C14.3749 15.4189 14.3755 15.3845 14.3755 15.3525C14.3755 14.3865 13.9281 13.6035 13.25 13.6035C12.926 13.6035 12.602 13.9121 12.2781 13.9121C11.9541 13.9121 11.6301 13.6035 11.3061 13.6035C10.6281 13.6035 10.1807 14.3865 10.1807 15.3525C10.1807 16.3184 10.628 19.3646 11.3061 19.3646C11.7017 19.3646 11.7466 16.8349 12.2781 16.8326C12.9118 16.8349 12.8544 19.3646 13.25 19.3646C13.8007 19.3646 14.1992 17.3554 14.3295 16.0832" stroke="#2F448C" stroke-linecap="round" stroke-linejoin="round"/>
<path fill-rule="evenodd" clip-rule="evenodd" d="M9.42531 11.6866C9.49229 11.9698 9.74767 12.1701 10.0417 12.1701H14.6678C14.9617 12.1701 15.2169 11.9698 15.284 11.6866L15.3663 10.975H17.6888V9.12625C17.6888 8.49909 17.175 7.99072 16.5411 7.99072H8.16825C7.53433 7.99072 7.02051 8.49909 7.02051 9.12636V10.975H9.34305L9.42531 11.6866Z" fill="white" stroke="#2F448C" stroke-linecap="round" stroke-linejoin="round"/>
<path d="M8.88985 10.3034H5.64538C2.67582 10.3034 3.17076 6.06903 5.64538 6.06903H9.60472C11.3095 6.06903 11.3645 3.81445 9.60472 3.81445C7.84509 3.81445 6.47022 3.85111 6.19531 3.81445" stroke="white" stroke-linecap="round" stroke-linejoin="round"/>
</svg>
