<svg width="24" height="25" viewBox="0 0 24 25" fill="none" xmlns="http://www.w3.org/2000/svg">
<path fill-rule="evenodd" clip-rule="evenodd" d="M12.0409 21.3506L2.18262 11.1632L5.01909 7.18555H19.31L21.8993 11.1632L12.0409 21.3506Z" fill="white"/>
<path fill-rule="evenodd" clip-rule="evenodd" d="M22.1055 11.5633C22.1818 11.5223 22.2441 11.4596 22.2846 11.3831C22.3216 11.3129 22.3388 11.234 22.3343 11.1547C22.3299 11.0755 22.3039 10.999 22.2593 10.9334L19.5475 6.95095C19.5075 6.89215 19.4537 6.84404 19.3908 6.81081C19.3279 6.77757 19.2578 6.76022 19.1867 6.76025H4.89489C4.75068 6.76025 4.61562 6.8316 4.53446 6.95095L1.82158 10.9332C1.77509 11.0013 1.74891 11.0813 1.74609 11.1637C1.74966 11.272 1.79332 11.375 1.8686 11.4529L11.7269 21.6405C11.7676 21.6826 11.8163 21.716 11.8701 21.7388C11.924 21.7616 11.982 21.7733 12.0405 21.7731C12.099 21.7733 12.1569 21.7616 12.2108 21.7388C12.2646 21.716 12.3134 21.6826 12.354 21.6405L22.1055 11.5633ZM6.09108 8.93302C6.04375 8.96577 6.00338 9.00756 5.97229 9.05599C5.9412 9.10442 5.92001 9.15852 5.90993 9.21518C5.89985 9.27184 5.90108 9.32993 5.91356 9.38611C5.92604 9.44229 5.94952 9.49545 5.98264 9.54251L6.80606 10.7131L3.00751 10.7427L5.12562 7.63298H10.8833L7.74566 10.537L6.69631 9.04113C6.63015 8.94684 6.52937 8.88255 6.41598 8.86229C6.30259 8.84204 6.18579 8.86746 6.09108 8.93302ZM14.6665 10.1812C14.7084 10.2207 14.7578 10.2515 14.8117 10.2718C14.8656 10.2921 14.923 10.3015 14.9805 10.2995C15.0381 10.2975 15.0947 10.2842 15.1471 10.2602C15.1994 10.2362 15.2465 10.2021 15.2857 10.1598C15.3248 10.1176 15.3551 10.068 15.375 10.0139C15.3948 9.95982 15.4038 9.90236 15.4013 9.84482C15.3988 9.78727 15.385 9.73079 15.3606 9.67862C15.3362 9.62645 15.3017 9.57964 15.2591 9.54087L13.1976 7.63298H18.347L16.2146 10.7131H8.84027L12.0406 7.75102L14.6665 10.1812ZM21.0534 10.7132H17.2763L19.1803 7.96265L21.0534 10.7131V10.7132ZM14.8126 13.9712C14.8358 13.9189 14.8692 13.8717 14.9107 13.8324C14.9522 13.793 15.001 13.7622 15.0544 13.7417C15.1078 13.7211 15.1647 13.7114 15.2219 13.7129C15.2791 13.7144 15.3354 13.7271 15.3877 13.7504C15.44 13.7736 15.4871 13.807 15.5265 13.8485C15.5659 13.8899 15.5967 13.9388 15.6172 13.9922C15.6377 14.0456 15.6475 14.1025 15.646 14.1597C15.6445 14.2169 15.6318 14.2732 15.6085 14.3255L13.368 19.3376L20.8407 11.6155H8.36791L12.0405 20.2248L14.8126 13.9712ZM7.41904 11.6155L3.21173 11.5859L10.7131 19.3377L7.41904 11.6155Z" fill="#2F448C"/>
<path d="M5.11819 7.35658L5.81965 8.05803C5.85999 8.0993 5.90813 8.13215 5.96126 8.15469C6.01439 8.17723 6.07147 8.189 6.12918 8.18933C6.1869 8.18966 6.2441 8.17853 6.29749 8.1566C6.35087 8.13467 6.39938 8.10236 6.44019 8.06156C6.481 8.02075 6.51332 7.97225 6.53526 7.91887C6.5572 7.86549 6.56834 7.80828 6.56802 7.75057C6.5677 7.69286 6.55594 7.63578 6.53341 7.58264C6.51088 7.52951 6.47803 7.48137 6.43677 7.44101L5.73532 6.73956L6.43634 6.03832C6.47801 5.99807 6.51126 5.94992 6.53413 5.89668C6.557 5.84344 6.56903 5.78618 6.56954 5.72824C6.57004 5.6703 6.559 5.61284 6.53706 5.55921C6.51512 5.50559 6.48272 5.45687 6.44175 5.41589C6.40077 5.37492 6.35205 5.34252 6.29843 5.32058C6.2448 5.29864 6.18734 5.2876 6.1294 5.2881C6.07146 5.28861 6.0142 5.30064 5.96096 5.32351C5.90772 5.34638 5.85957 5.37963 5.81932 5.4213L5.11819 6.12254L4.41685 5.42119C4.3347 5.34088 4.22419 5.2962 4.10931 5.29685C3.99443 5.29751 3.88444 5.34344 3.80321 5.42468C3.72198 5.50592 3.67607 5.61592 3.67543 5.73081C3.6748 5.84569 3.7195 5.95619 3.79983 6.03832L4.50117 6.73956L3.79983 7.44101C3.75785 7.48119 3.72433 7.52936 3.70122 7.58267C3.67811 7.63598 3.66588 7.69338 3.66525 7.75148C3.66462 7.80959 3.6756 7.86723 3.69755 7.92103C3.71949 7.97484 3.75197 8.02372 3.79306 8.0648C3.83415 8.10589 3.88303 8.13835 3.93684 8.16029C3.99065 8.18223 4.04829 8.1932 4.1064 8.19255C4.1645 8.19191 4.22189 8.17967 4.2752 8.15655C4.32851 8.13344 4.37667 8.0999 4.41685 8.05792L5.11819 7.35658Z" fill="#11C5BB"/>
<path d="M16.0717 5.03975C16.0312 5.08026 15.999 5.12836 15.9771 5.18129C15.9552 5.23423 15.9439 5.29096 15.9439 5.34826C15.9439 5.40555 15.9552 5.46229 15.9771 5.51522C15.999 5.56816 16.0312 5.61625 16.0717 5.65677C16.1122 5.69728 16.1603 5.72942 16.2132 5.75134C16.2662 5.77327 16.3229 5.78456 16.3802 5.78456C16.4375 5.78456 16.4942 5.77327 16.5472 5.75134C16.6001 5.72942 16.6482 5.69728 16.6887 5.65677L16.893 5.45244L17.0974 5.65677C17.1376 5.69844 17.1858 5.73169 17.239 5.75456C17.2922 5.77743 17.3495 5.78946 17.4074 5.78997C17.4654 5.79047 17.5228 5.77943 17.5765 5.75749C17.6301 5.73555 17.6788 5.70315 17.7198 5.66218C17.7608 5.6212 17.7932 5.57248 17.8151 5.51886C17.837 5.46523 17.8481 5.40777 17.8476 5.34983C17.8471 5.29189 17.835 5.23463 17.8122 5.18139C17.7893 5.12815 17.7561 5.08 17.7144 5.03975L17.5101 4.83531L17.7142 4.6312C17.796 4.54935 17.8419 4.43835 17.8419 4.32262C17.8419 4.20688 17.7959 4.0959 17.7141 4.01408C17.6322 3.93225 17.5212 3.8863 17.4055 3.88632C17.2897 3.88634 17.1788 3.93233 17.0969 4.01419L16.8929 4.21819L16.6887 4.01408C16.6485 3.9724 16.6003 3.93916 16.5471 3.91629C16.4938 3.89342 16.4366 3.88138 16.3786 3.88088C16.3207 3.88037 16.2632 3.89141 16.2096 3.91335C16.156 3.93529 16.1073 3.9677 16.0663 4.00867C16.0253 4.04964 15.9929 4.09836 15.971 4.15199C15.949 4.20561 15.938 4.26307 15.9385 4.32101C15.939 4.37895 15.951 4.43621 15.9739 4.48945C15.9968 4.54269 16.03 4.59084 16.0717 4.63109L16.276 4.83531L16.0717 5.03975Z" fill="#11C5BB"/>
</svg>
