<svg width="24" height="25" viewBox="0 0 24 25" fill="none" xmlns="http://www.w3.org/2000/svg">
<path d="M12.4909 6.5415H8.8909C5.84831 6.5415 3.38181 9.00801 3.38181 12.0506C3.38181 15.0932 5.84831 17.5597 8.8909 17.5597H12.4909C15.5335 17.5597 18 15.0932 18 12.0506C18 9.00801 15.5335 6.5415 12.4909 6.5415Z" fill="#4C84D9" stroke="#2F448C" stroke-linecap="round" stroke-linejoin="round"/>
<path d="M10.704 9.27611C9.12664 10.1891 8.5862 12.2111 9.49689 13.7925C10.0593 14.7691 11.0434 15.3491 12.0853 15.4351C12.5884 15.4765 13.0908 15.688 13.3427 16.1254L15.6444 20.1223C15.7496 20.305 15.9011 20.4568 16.0837 20.5624C16.2662 20.6679 16.4734 20.7235 16.6842 20.7235H18.9693C19.5786 20.7235 20.0727 20.2294 20.0727 19.62C20.0727 19.0106 19.5786 18.5165 18.9693 18.5165H17.9158C17.7049 18.5166 17.4977 18.461 17.3152 18.3555C17.1326 18.25 16.9811 18.0982 16.8758 17.9155L15.2478 15.0883C14.9901 14.6408 15.0685 14.0865 15.2995 13.6246C15.7802 12.6637 15.785 11.4867 15.2088 10.4863C14.2981 8.90488 12.2812 8.36302 10.704 9.276V9.27611Z" fill="white" stroke="#2F448C" stroke-linecap="round" stroke-linejoin="round"/>
<path d="M14.0007 12.7673C14.3545 11.6345 13.8017 10.568 12.5623 10.2759" stroke="#11C5BB" stroke-linecap="round" stroke-linejoin="round"/>
</svg>
