<svg width="24" height="25" viewBox="0 0 24 25" fill="none" xmlns="http://www.w3.org/2000/svg">
<path d="M15.0695 3.08789C17.236 3.08789 18.6654 5.5792 18.6654 8.65262C18.6654 9.65102 18.599 10.1965 18.5186 10.9775C18.1023 15.0257 16.8291 21.4188 15.0695 21.4188C13.8057 21.4188 13.989 13.3696 11.964 13.3622C10.266 13.3695 10.1224 21.4188 8.85855 21.4188C6.692 21.4188 5.2627 11.7259 5.2627 8.65262C5.2627 5.57931 6.692 3.08789 8.85855 3.08789C9.8936 3.08789 10.929 4.06993 11.964 4.06993C12.9991 4.06993 14.0344 3.08789 15.0695 3.08789Z" fill="white"/>
<path d="M18.6606 8.98011C18.6637 8.86404 18.6654 8.75473 18.6654 8.65262C18.6654 5.5792 17.236 3.08789 15.0695 3.08789C14.0344 3.08789 12.9991 4.06993 11.964 4.06993C10.929 4.06993 9.8936 3.08789 8.85855 3.08789C6.692 3.08789 5.2627 5.5792 5.2627 8.65262C5.2627 11.7259 6.69211 21.4188 8.85855 21.4188C10.1224 21.4188 10.266 13.3695 11.964 13.3622C13.989 13.3696 13.8057 21.4188 15.0695 21.4188C16.8291 21.4188 18.1023 15.0257 18.5186 10.9775" stroke="#2F448C" stroke-linecap="round" stroke-linejoin="round"/>
<path d="M11.8274 6.00098H13.3943L12.5945 8.08156H13.4218L12.5376 10.0482H13.1228L11.488 12.5138L11.8274 10.6369H11.2519L11.8274 8.69138H11.0186L11.8274 6.00098Z" fill="#11C5BB"/>
</svg>
