<svg width="24" height="25" viewBox="0 0 24 25" fill="none" xmlns="http://www.w3.org/2000/svg">
<path d="M15.1779 3.41504C17.3444 3.41504 18.7738 5.90635 18.7738 8.97977C18.7738 9.97817 18.7073 10.5236 18.6269 11.3046C18.2107 15.3529 16.9375 21.7459 15.1779 21.7459C13.9141 21.7459 14.0974 13.6967 12.0724 13.6893C10.3744 13.6966 10.2308 21.7459 8.96695 21.7459C6.8004 21.7459 5.37109 12.0531 5.37109 8.97977C5.37109 5.90635 6.8004 3.41504 8.96695 3.41504C10.002 3.41504 11.0374 4.39697 12.0724 4.39697C13.1075 4.39697 14.1428 3.41504 15.1779 3.41504Z" fill="white"/>
<path d="M18.769 9.30726C18.7721 9.19118 18.7738 9.08188 18.7738 8.97977C18.7738 5.90635 17.3444 3.41504 15.1779 3.41504C14.1428 3.41504 13.1075 4.39697 12.0724 4.39697C11.0374 4.39697 10.002 3.41504 8.96695 3.41504C6.8004 3.41504 5.37109 5.90635 5.37109 8.97977C5.37109 12.0531 6.80051 21.7459 8.96695 21.7459C10.2308 21.7459 10.3744 13.6966 12.0724 13.6893C14.0974 13.6967 13.9141 21.7459 15.1779 21.7459C16.9375 21.7459 18.2107 15.3529 18.6269 11.3046" stroke="#2F448C" stroke-linecap="round" stroke-linejoin="round"/>
<path fill-rule="evenodd" clip-rule="evenodd" d="M16.9466 8.73888C16.9445 8.88729 16.8841 9.02892 16.7784 9.13314C16.6728 9.23736 16.5303 9.29579 16.3819 9.29579C16.2335 9.29579 16.091 9.23736 15.9853 9.13314C15.8796 9.02892 15.8192 8.88729 15.8172 8.73888C15.8172 7.11342 15.4133 6.05764 14.9701 6.05764C14.7055 6.05764 14.5196 6.10695 14.2037 6.24331C14.1672 6.25913 14.0334 6.31782 14.0314 6.3187C13.4632 6.56688 13.0536 6.67411 12.4289 6.67411C11.4546 6.67411 10.6642 6.42757 10.081 5.91833C9.96814 5.81982 9.89909 5.68052 9.88898 5.53109C9.87888 5.38166 9.92855 5.23434 10.0271 5.12153C10.1256 5.00872 10.2649 4.93967 10.4143 4.92956C10.5637 4.91946 10.7111 4.96912 10.8239 5.06764C11.1819 5.3803 11.7091 5.5447 12.4289 5.5447C12.8749 5.5447 13.1417 5.47488 13.5794 5.28375C13.5786 5.28408 13.7156 5.22386 13.7561 5.2064C14.2009 5.0144 14.5259 4.92822 14.9701 4.92822C15.7176 4.92822 16.2554 5.44586 16.574 6.27888C16.8227 6.92906 16.9466 7.7911 16.9466 8.73888Z" fill="#11C5BB"/>
</svg>
