<svg width="24" height="25" viewBox="0 0 24 25" fill="none" xmlns="http://www.w3.org/2000/svg">
<path d="M15.0695 3.41504C17.236 3.41504 18.6654 5.90635 18.6654 8.97977C18.6654 9.97817 18.599 10.5236 18.5186 11.3046C18.1023 15.3529 16.8291 21.7459 15.0695 21.7459C13.8057 21.7459 13.989 13.6967 11.964 13.6893C10.266 13.6966 10.1224 21.7459 8.85855 21.7459C6.692 21.7459 5.2627 12.0531 5.2627 8.97977C5.2627 5.90635 6.692 3.41504 8.85855 3.41504C9.8936 3.41504 10.929 4.39697 11.964 4.39697C12.9991 4.39697 14.0344 3.41504 15.0695 3.41504Z" fill="white"/>
<path d="M18.6606 9.30726C18.6637 9.19118 18.6654 9.08188 18.6654 8.97977C18.6654 5.90635 17.236 3.41504 15.0695 3.41504C14.0344 3.41504 12.9991 4.39697 11.964 4.39697C10.929 4.39697 9.8936 3.41504 8.85855 3.41504C6.692 3.41504 5.2627 5.90635 5.2627 8.97977C5.2627 12.0531 6.69211 21.7459 8.85855 21.7459C10.1224 21.7459 10.266 13.6966 11.964 13.6893C13.989 13.6967 13.8057 21.7459 15.0695 21.7459C16.8291 21.7459 18.1023 15.3529 18.5186 11.3046" stroke="#2F448C" stroke-linecap="round" stroke-linejoin="round"/>
<path d="M14.8534 16.8175C14.8534 18.9115 15.4871 20.9275 15.4871 22.1418C16.2476 22.0017 16.2476 19.0593 15.9941 17.5181C15.6307 15.3082 15.2337 13.3148 15.2337 11.6334C15.2337 9.95207 16.3744 8.83116 15.3604 7.85043C14.3465 6.8697 12.8256 7.85043 12.0653 7.85043C11.3048 7.85043 9.91072 7.00978 8.77006 7.85043C7.62941 8.69108 8.77006 9.39167 8.77006 11.3532C8.77006 13.3148 8.13624 15.2764 8.00959 17.5181C7.88283 19.7599 8.00959 22.1418 8.51654 22.1418C9.02348 22.1418 8.51654 19.1527 9.15024 16.8175C9.53043 15.4164 10.0374 11.9436 12.0653 11.9436C14.093 11.9436 14.8534 14.7236 14.8534 16.8175Z" fill="#11C5BB"/>
</svg>
