<svg width="24" height="25" viewBox="0 0 24 25" fill="none" xmlns="http://www.w3.org/2000/svg">
<path fill-rule="evenodd" clip-rule="evenodd" d="M13.4304 20.2792L12.0828 22.4249L10.7352 20.2792V9.01318H13.4304V20.2793V20.2792Z" fill="#4C84D9"/>
<path fill-rule="evenodd" clip-rule="evenodd" d="M14.4304 6.67767C14.3798 6.62731 14.3113 6.59906 14.2399 6.59912H9.92746C9.85601 6.59912 9.7875 6.62738 9.73688 6.67767L8.9283 7.48243C8.9033 7.50727 8.88346 7.53681 8.86993 7.56935C8.85639 7.60189 8.84942 7.63679 8.84943 7.67203V9.01319C8.8495 9.04852 8.85653 9.08348 8.87011 9.11608C8.8837 9.14869 8.90358 9.1783 8.92861 9.20322C8.95364 9.22814 8.98334 9.24789 9.01601 9.26133C9.04867 9.27477 9.08367 9.28164 9.11899 9.28156H10.4666V10.559L10.1406 10.6285C10.1061 10.6359 10.0734 10.65 10.0443 10.67C10.0152 10.69 9.99039 10.7156 9.97122 10.7452C9.95204 10.7749 9.93891 10.808 9.93256 10.8427C9.92621 10.8774 9.92678 10.9131 9.93423 10.9476C9.94954 11.0171 9.9917 11.0777 10.0515 11.1162C10.1113 11.1547 10.1839 11.168 10.2535 11.1532L10.4666 11.1078V12.1684L10.1406 12.2379C10.1061 12.2453 10.0734 12.2594 10.0443 12.2794C10.0152 12.2994 9.99039 12.325 9.97122 12.3546C9.95204 12.3843 9.93891 12.4174 9.93256 12.4521C9.92621 12.4869 9.92678 12.5225 9.93423 12.557C9.94957 12.6265 9.99173 12.6871 10.0515 12.7256C10.1113 12.7641 10.1839 12.7774 10.2535 12.7626L10.4666 12.7172V13.7777L10.1406 13.8474C10.1061 13.8548 10.0734 13.8689 10.0443 13.8889C10.0152 13.9089 9.99041 13.9344 9.97123 13.964C9.95206 13.9937 9.93892 14.0268 9.93257 14.0615C9.92622 14.0962 9.92678 14.1318 9.93423 14.1663C9.94952 14.2358 9.99167 14.2964 10.0515 14.335C10.1113 14.3735 10.1839 14.3868 10.2535 14.372L10.4666 14.3266V15.3873L10.1406 15.4568C10.1061 15.4641 10.0734 15.4782 10.0443 15.4982C10.0152 15.5182 9.99038 15.5438 9.97119 15.5734C9.95201 15.603 9.93886 15.6362 9.9325 15.6709C9.92614 15.7056 9.92669 15.7412 9.93412 15.7757C9.94946 15.8452 9.99164 15.9058 10.0515 15.9444C10.1113 15.9829 10.1839 15.9963 10.2535 15.9815L10.4666 15.9361V16.9966L10.1406 17.0662C10.1061 17.0735 10.0734 17.0876 10.0443 17.1076C10.0152 17.1276 9.99038 17.1532 9.97119 17.1828C9.95201 17.2125 9.93886 17.2456 9.9325 17.2803C9.92614 17.315 9.92669 17.3507 9.93412 17.3852C9.94946 17.4546 9.99164 17.5152 10.0515 17.5538C10.1113 17.5923 10.1839 17.6056 10.2535 17.5908L10.4666 17.5454V18.6061L10.1406 18.6755C10.1061 18.6828 10.0734 18.6969 10.0443 18.7169C10.0152 18.7369 9.99038 18.7625 9.97119 18.7921C9.95201 18.8218 9.93886 18.8549 9.9325 18.8896C9.92614 18.9243 9.92669 18.96 9.93412 18.9945C9.94941 19.064 9.99157 19.1246 10.0514 19.1632C10.1113 19.2017 10.1839 19.215 10.2535 19.2002L10.4666 19.1548V20.279C10.4666 20.3294 10.4808 20.3785 10.5076 20.4212L11.8552 22.5671C11.8796 22.6057 11.9133 22.6374 11.9533 22.6595C11.9932 22.6815 12.0381 22.693 12.0838 22.693C12.1294 22.693 12.1743 22.6815 12.2142 22.6595C12.2542 22.6374 12.2879 22.6057 12.3123 22.5671L13.66 20.4212C13.6866 20.3785 13.7009 20.3292 13.7009 20.279V18.4652L14.0269 18.3956C14.0614 18.3884 14.0942 18.3744 14.1234 18.3545C14.1525 18.3347 14.1775 18.3092 14.1968 18.2797C14.2161 18.2502 14.2294 18.2171 14.2359 18.1824C14.2425 18.1477 14.2421 18.1121 14.2348 18.0776C14.2198 18.0078 14.1777 17.9468 14.1178 17.908C14.0578 17.8692 13.985 17.8558 13.9152 17.8706C13.9148 17.8708 13.9143 17.8708 13.914 17.8709L13.7009 17.9163V16.8556L14.0269 16.7861C14.0614 16.7789 14.0942 16.765 14.1234 16.7451C14.1526 16.7252 14.1775 16.6998 14.1969 16.6702C14.2162 16.6407 14.2295 16.6076 14.236 16.5729C14.2425 16.5382 14.2421 16.5026 14.2348 16.468C14.2197 16.3983 14.1776 16.3374 14.1177 16.2986C14.0578 16.2599 13.985 16.2464 13.9152 16.2613L13.914 16.2615L13.7009 16.307V15.2463L14.0269 15.1767C14.0614 15.1695 14.0942 15.1556 14.1234 15.1357C14.1525 15.1158 14.1775 15.0904 14.1968 15.0609C14.2161 15.0313 14.2294 14.9983 14.2359 14.9636C14.2425 14.9289 14.2421 14.8933 14.2348 14.8587C14.2197 14.789 14.1776 14.728 14.1177 14.6892C14.0578 14.6504 13.985 14.637 13.9152 14.6518C13.9148 14.652 13.9143 14.652 13.914 14.6521L13.7009 14.6975V13.6369L14.0269 13.5674C14.0614 13.5602 14.0942 13.5463 14.1234 13.5264C14.1526 13.5065 14.1775 13.4811 14.1968 13.4516C14.2162 13.422 14.2295 13.389 14.236 13.3543C14.2425 13.3196 14.2421 13.2839 14.2348 13.2494C14.2198 13.1796 14.1778 13.1186 14.1179 13.0798C14.058 13.041 13.9851 13.0275 13.9153 13.0424C13.9148 13.0425 13.9145 13.0427 13.914 13.0427L13.7009 13.0881V12.0274L14.0269 11.9579C14.0614 11.9507 14.0942 11.9368 14.1234 11.9169C14.1526 11.8971 14.1775 11.8716 14.1968 11.8421C14.2162 11.8126 14.2295 11.7795 14.236 11.7448C14.2425 11.7102 14.2421 11.6745 14.2348 11.64C14.2198 11.5702 14.1778 11.5092 14.1179 11.4704C14.058 11.4316 13.9851 11.4182 13.9153 11.433L13.914 11.4334L13.7009 11.4788V10.4181L14.0269 10.3486C14.0614 10.3412 14.0941 10.3271 14.1232 10.3071C14.1523 10.2871 14.1771 10.2615 14.1963 10.2319C14.2155 10.2022 14.2286 10.1691 14.2349 10.1344C14.2413 10.0996 14.2407 10.064 14.2333 10.0295C14.2179 9.96004 14.1757 9.89947 14.1159 9.86096C14.0561 9.82245 13.9836 9.80911 13.914 9.82385L13.7009 9.86923V9.28156H15.0485C15.0838 9.28164 15.1188 9.27477 15.1515 9.26133C15.1841 9.24788 15.2138 9.22814 15.2389 9.20321C15.2639 9.17829 15.2837 9.14868 15.2973 9.11608C15.3109 9.08347 15.3179 9.04851 15.318 9.01319V7.67203C15.318 7.6009 15.2896 7.53272 15.2391 7.48243L14.4304 6.67767ZM13.1619 20.2023L12.0836 21.9189L11.0056 20.2023V19.04L13.1617 18.5801V20.2023H13.1619ZM13.1619 18.0314L11.0056 18.4912V17.4305L13.1619 16.9707V18.0314ZM13.1619 16.4219L11.0056 16.8818V15.8211L13.1619 15.3612V16.4219ZM13.1619 14.8125L11.0056 15.2722V14.2117L13.1619 13.7519V14.8125ZM13.1619 13.203L11.0056 13.6629V12.6023L13.1619 12.1424V13.203ZM13.1619 11.5936L11.0056 12.0534V10.9929L13.1619 10.533V11.5936ZM13.1619 9.98432L11.0056 10.4442V9.28156H13.1619V9.98432ZM14.779 8.74505H9.38844V7.78319L10.0392 7.13563H14.1283L14.779 7.78319V8.74516V8.74505Z" fill="#2F448C"/>
<path d="M15.1523 2.72314C17.3187 2.72314 18.7481 5.21445 18.7481 8.28787C18.722 8.87456 18.6561 10.1609 18.6013 10.6128C18.185 14.661 16.7715 14.2702 15.012 14.2702H8.80091C6.11859 14.2702 5.34546 11.3612 5.34546 8.28787C5.34546 5.21456 6.77477 2.72314 8.94131 2.72314C9.97637 2.72314 11.0118 3.70518 12.0468 3.70518C13.0819 3.70518 14.1171 2.72314 15.1523 2.72314Z" fill="white"/>
<path fill-rule="evenodd" clip-rule="evenodd" d="M16.9482 7.96897C16.9482 8.11874 16.8888 8.26237 16.7828 8.36828C16.6769 8.47418 16.5333 8.53368 16.3835 8.53368C16.2338 8.53368 16.0901 8.47418 15.9842 8.36828C15.8783 8.26237 15.8188 8.11874 15.8188 7.96897C15.8188 6.34351 15.415 5.28762 14.9717 5.28762C14.7073 5.28762 14.5213 5.33693 14.2054 5.47329C14.1688 5.48911 14.0351 5.5478 14.0331 5.54868C13.4649 5.79675 13.0552 5.90409 12.4306 5.90409C11.4563 5.90409 10.6658 5.65755 10.0827 5.14831C9.96991 5.0498 9.90086 4.9105 9.89075 4.76107C9.88065 4.61164 9.93032 4.46432 10.0288 4.35151C10.1273 4.2387 10.2666 4.16965 10.4161 4.15954C10.5655 4.14944 10.7128 4.19911 10.8256 4.29762C11.1837 4.61028 11.7108 4.77468 12.4306 4.77468C12.8765 4.77468 13.1434 4.70486 13.5812 4.51362C13.5803 4.51406 13.7174 4.45384 13.7578 4.43639C14.2026 4.24439 14.5276 4.1582 14.9717 4.1582C15.7192 4.1582 16.257 4.67584 16.5757 5.50886C16.8243 6.15904 16.9482 7.02108 16.9482 7.96886V7.96897Z" fill="#11C5BB"/>
<path fill-rule="evenodd" clip-rule="evenodd" d="M15.6441 14.581H8.8283C7.7675 14.581 4.87528 13.5427 4.94237 8.30445C4.98623 4.87758 6.60415 2.38965 8.89364 2.38965C9.48906 2.38965 10.0531 2.65638 10.5983 2.91416C11.1003 3.15154 11.5743 3.3755 12.0216 3.3755C12.4689 3.3755 12.9429 3.15154 13.4449 2.91405C13.9903 2.65638 14.5543 2.38965 15.1497 2.38965C17.359 2.38965 18.9838 4.70608 19.095 7.94783C19.1155 8.54619 18.4568 8.54619 18.4366 7.96387C18.3374 5.09467 16.9857 3.04692 15.1497 3.04692C14.7024 3.04692 14.2284 3.27088 13.7265 3.50838C13.1812 3.76605 12.6171 4.03267 12.0217 4.03267C11.4262 4.03267 10.8621 3.76605 10.3168 3.50827C9.81492 3.27088 9.34092 3.04692 8.89364 3.04692C6.98575 3.04692 5.60084 5.25819 5.60084 8.30456C5.60084 12.4485 7.84004 13.9094 8.82819 13.9094C9.81655 13.9094 15.3176 13.9238 15.6548 13.9257C15.9919 13.9275 17.8635 13.9275 18.2962 10.6046C18.3196 10.4245 18.4763 10.2924 18.6575 10.3115C18.7442 10.3205 18.8239 10.3634 18.879 10.431C18.9341 10.4986 18.9601 10.5853 18.9514 10.672C18.5695 14.5309 16.3106 14.581 15.6441 14.581Z" fill="#2F448C"/>
</svg>
