<svg width="148" height="56" viewBox="0 0 148 56" fill="none" xmlns="http://www.w3.org/2000/svg">
<path fill-rule="evenodd" clip-rule="evenodd" d="M27.6871 32.2381C28.2145 31.8138 28.4781 31.2848 28.4781 30.651C28.4781 30.1743 28.2988 29.6714 27.9402 29.1371L26.084 26.4919C25.6041 25.8214 25.1242 25.3133 24.6338 24.9781C24.1434 24.6429 23.5738 24.4229 22.9146 24.3233C24.5072 23.9514 25.7465 23.2129 26.6219 22.1129C27.5025 21.0129 27.9402 19.6719 27.9402 18.09C27.9402 16.0105 27.2969 14.4233 26.0102 13.3233C24.7287 12.2233 22.8092 11.6733 20.2568 11.6733H12.7527C11.9354 11.6733 11.3078 11.8933 10.8701 12.3281C10.4324 12.7629 10.2109 13.3862 10.2109 14.1981V30.0852C10.2109 30.9181 10.4535 31.5729 10.9439 32.06C11.4291 32.5471 12.0936 32.7881 12.932 32.7881C13.7705 32.7881 14.4244 32.5471 14.9043 32.06C15.3842 31.5729 15.6215 30.9181 15.6215 30.0852V24.7686H17.5674C17.984 24.7686 18.3479 24.8629 18.659 25.0514C18.9648 25.24 19.2602 25.5281 19.5396 25.9262L23.4262 31.5729C23.7268 32.0076 24.0854 32.3324 24.502 32.5524C24.9186 32.7671 25.3668 32.8771 25.8467 32.8771C26.548 32.8771 27.1598 32.6624 27.6871 32.2381ZM22.7986 18.2629C22.7986 19.1167 22.535 19.7295 22.0076 20.1067C21.475 20.4838 20.6049 20.6724 19.392 20.6671H15.5635V15.7957H19.392C20.6049 15.7957 21.4803 15.9895 22.0076 16.3771C22.535 16.7648 22.7986 17.3933 22.7986 18.2629Z" fill="#004B96"/>
<path d="M40.0797 31.9552C39.642 31.5205 39.4205 30.8972 39.4205 30.0852V14.1981C39.4205 13.3862 39.642 12.7629 40.0797 12.3281C40.5174 11.8933 41.1449 11.6733 41.9623 11.6733H52.3088C53.1684 11.6733 53.8117 11.8514 54.2547 12.2076C54.6924 12.5638 54.9139 13.0771 54.9139 13.7529C54.9139 15.1776 54.049 15.89 52.3141 15.89H44.773V19.871H51.7076C53.4426 19.871 54.3074 20.5729 54.3074 21.9819C54.3074 22.6576 54.0859 23.171 53.6482 23.5271C53.2105 23.8833 52.5619 24.0614 51.7023 24.0614H44.773V28.3986H52.3088C54.0437 28.3986 54.9086 29.111 54.9086 30.5357C54.9086 31.2114 54.6871 31.7248 54.2494 32.081C53.8117 32.4371 53.1631 32.6152 52.3035 32.6152H41.9623C41.1449 32.61 40.5174 32.3952 40.0797 31.9552Z" fill="#004B96"/>
<path d="M82.6311 11.883C83.0266 11.6473 83.4696 11.5269 83.9442 11.5269C84.6614 11.5269 85.31 11.7521 85.8901 12.2078C86.4701 12.6635 86.7549 13.2397 86.7549 13.9311C86.7549 14.2664 86.6653 14.6121 86.486 14.9683L78.5916 31.154C78.3332 31.6883 77.943 32.1021 77.4262 32.385C76.9094 32.673 76.3504 32.8145 75.7545 32.8145C75.1586 32.8145 74.5996 32.673 74.0828 32.385C73.566 32.0969 73.1758 31.6883 72.9174 31.154L65.0231 14.9683C64.8649 14.654 64.7858 14.303 64.7858 13.9311C64.7858 13.2607 65.0864 12.6897 65.6823 12.2235C66.2834 11.7573 66.9479 11.5269 67.6862 11.5269C68.166 11.5269 68.609 11.6473 69.0151 11.883C69.4211 12.1188 69.7375 12.475 69.9537 12.9516L75.8442 25.6016L81.703 12.9516C81.9244 12.475 82.2356 12.1188 82.6311 11.883Z" fill="#004B96"/>
<path d="M98.1244 30.562C96.5424 29.0167 95.7461 26.7591 95.7461 23.7891V19.1481C95.7461 18.3362 95.9887 17.6867 96.4791 17.2048C96.9643 16.7177 97.6182 16.4767 98.4355 16.4767C99.2529 16.4767 99.9068 16.7177 100.392 17.2048C100.882 17.692 101.125 18.3362 101.125 19.1481V23.9986C101.125 25.502 101.463 26.6596 102.143 27.4715C102.818 28.2834 103.799 28.6867 105.075 28.6867C106.351 28.6867 107.327 28.2834 108.007 27.4715C108.682 26.6596 109.025 25.502 109.025 23.9986V3.30815C109.025 2.49624 109.267 1.84672 109.758 1.36481C110.243 0.877671 110.897 0.636719 111.714 0.636719C112.531 0.636719 113.191 0.877671 113.686 1.36481C114.182 1.85196 114.435 2.49624 114.435 3.30815V23.7891C114.435 26.7381 113.634 28.9905 112.03 30.5462C110.427 32.102 108.107 32.8772 105.08 32.8772C102.027 32.8772 99.7117 32.1072 98.1244 30.562Z" fill="#00C4EC"/>
<path fill-rule="evenodd" clip-rule="evenodd" d="M127.207 30.0852C127.207 30.9181 127.45 31.5729 127.94 32.06C128.431 32.5471 129.095 32.7881 129.928 32.7829C130.788 32.7829 131.463 32.5419 131.964 32.0548C132.465 31.5676 132.713 30.9129 132.713 30.08V25.0305H137.406C139.716 25.0305 141.53 24.4386 142.833 23.2495C144.135 22.0657 144.789 20.4314 144.789 18.3519C144.789 16.2567 144.146 14.6171 142.848 13.4386C141.551 12.26 139.737 11.6733 137.406 11.6733H129.749C128.932 11.6733 128.304 11.8933 127.867 12.3281C127.429 12.7629 127.207 13.3862 127.207 14.1981V30.0852ZM138.914 20.3162C138.424 20.73 137.675 20.9395 136.657 20.9395H132.713V15.801H136.657C138.651 15.801 139.647 16.66 139.647 18.3833C139.647 19.2581 139.405 19.9024 138.914 20.3162Z" fill="#004B96"/>
<path d="M106.447 9.01112C106.081 8.50841 105.592 8.25977 104.99 8.25977C104.389 8.25977 103.905 8.50841 103.543 9.01112C103.181 9.51382 103 10.1787 103 11.0165V13.3679V20.1084V24.503C103 25.3408 103.181 26.0111 103.543 26.5084C103.905 27.0111 104.384 27.2598 104.99 27.2598C105.592 27.2598 106.081 27.0111 106.447 26.5084C106.814 26.0057 107 25.3408 107 24.503V19.8976V13.5787V11.0165C107 10.1787 106.814 9.50841 106.447 9.01112Z" fill="#00C4EC"/>
<path fill-rule="evenodd" clip-rule="evenodd" d="M42.4439 45.2915H39.4167V55.1126H42.4439C43.9786 55.1126 45.1653 54.6862 46.0038 53.8336C46.8424 52.9757 47.2591 51.7652 47.2591 50.1968C47.2591 48.6178 46.8424 47.4073 46.0091 46.5599C45.1758 45.7126 43.9892 45.2915 42.4439 45.2915ZM45.5714 53.4705C44.8647 54.2073 43.8204 54.5757 42.4334 54.5757H39.9862V45.8178H42.4281C43.8257 45.8178 44.8752 46.1862 45.5767 46.9178C46.2781 47.6547 46.6315 48.7441 46.6315 50.1915C46.6315 51.6389 46.2781 52.7336 45.5714 53.4705Z" fill="#00C4EC"/>
<path d="M54.5582 55.1073V45.2915H60.4756V45.8336H55.1436V49.8599H60.1961V50.402H55.1436V54.5652H60.4756V55.1073H54.5582Z" fill="#00C4EC"/>
<path d="M74.6099 45.2915H75.1531V55.1073H74.6784L68.1598 46.281V55.1073H67.6166V45.2915H68.1071L74.6099 54.1073V45.2915Z" fill="#00C4EC"/>
<path d="M85.2949 55.1072V45.8177H81.6823V45.2861H89.4983V45.8177H85.8856V55.1072H85.2949Z" fill="#00C4EC"/>
<path fill-rule="evenodd" clip-rule="evenodd" d="M101.291 52.3915L102.462 55.1073H103.084L98.8543 45.2915H98.2953L94.0656 55.1073H94.6668L95.8376 52.3915H101.291ZM101.054 51.8336H96.0697L98.5695 46.0389L101.054 51.8336Z" fill="#00C4EC"/>
<path d="M109.909 55.1073V45.2915H110.483V54.581H115.715V55.1126H109.909V55.1073Z" fill="#00C4EC"/>
</svg>
