<svg width="24" height="25" viewBox="0 0 24 25" fill="none" xmlns="http://www.w3.org/2000/svg">
<path d="M15.0696 3.41504C17.236 3.41504 18.6654 5.90635 18.6654 8.97977C18.6654 9.97817 18.599 10.5236 18.5186 11.3046C18.1023 15.3529 16.8291 21.7459 15.0696 21.7459C13.8058 21.7459 13.989 13.6967 11.9641 13.6893C10.2661 13.6966 10.1224 21.7459 8.85861 21.7459C6.69207 21.7459 5.26276 12.0531 5.26276 8.97977C5.26276 5.90635 6.69207 3.41504 8.85861 3.41504C9.89367 3.41504 10.929 4.39697 11.9641 4.39697C12.9992 4.39697 14.0344 3.41504 15.0696 3.41504Z" fill="white"/>
<path d="M18.6606 9.30726C18.6638 9.19118 18.6654 9.08188 18.6654 8.97977C18.6654 5.90635 17.236 3.41504 15.0696 3.41504C14.0344 3.41504 12.9992 4.39697 11.9641 4.39697C10.929 4.39697 9.89367 3.41504 8.85861 3.41504C6.69207 3.41504 5.26276 5.90635 5.26276 8.97977C5.26276 12.0531 6.69217 21.7459 8.85861 21.7459C10.1224 21.7459 10.2661 13.6966 11.9641 13.6893C13.989 13.6967 13.8058 21.7459 15.0696 21.7459C16.8291 21.7459 18.1023 15.3529 18.5186 11.3046" stroke="#2F448C" stroke-linecap="round" stroke-linejoin="round"/>
<path d="M8.07271 7.36006C8.8862 6.53708 10.7433 6.52366 10.8545 5.34188C10.8947 4.91599 10.7568 4.16184 10.6009 3.94475C8.7818 2.88733 7.2194 3.67202 6.23758 5.03566C5.96485 5.41442 4.36362 8.0146 5.39998 10.3601C7.09089 10.3601 7.37911 8.06184 8.07271 7.36006Z" fill="#11C5BB"/>
<path d="M18.6606 9.30726C18.6638 9.19118 18.6654 9.08188 18.6654 8.97977C18.6654 5.90635 17.236 3.41504 15.0696 3.41504C14.0344 3.41504 12.9992 4.39697 11.9641 4.39697C10.929 4.39697 9.89367 3.41504 8.85861 3.41504C6.69207 3.41504 5.26276 5.90635 5.26276 8.97977C5.26276 12.0531 6.69217 21.7459 8.85861 21.7459C10.1224 21.7459 10.2661 13.6966 11.9641 13.6893C13.989 13.6967 13.8058 21.7459 15.0696 21.7459C16.8291 21.7459 18.1023 15.3529 18.5186 11.3046" stroke="#2F448C" stroke-linecap="round" stroke-linejoin="round"/>
</svg>
