<svg width="24" height="25" viewBox="0 0 24 25" fill="none" xmlns="http://www.w3.org/2000/svg">
<path d="M6.1095 5.12305H17.6731C17.6731 5.12305 16.2916 18.7285 16.1893 20.0685H7.49102L6.1095 5.12305Z" fill="white"/>
<path d="M6.1095 9.70508C6.85262 9.35217 8.30757 10.2363 9.05495 10.0323C10.0169 9.76966 10.8724 9.32598 11.8368 9.32326C12.856 9.32042 13.8207 9.72755 14.8368 10.0323C15.4928 10.229 16.9659 9.37398 17.6186 9.70508C17.6186 9.70508 16.4731 18.8687 16.364 20.2869H7.41859L6.1095 9.70508Z" fill="#4C84D9"/>
<path d="M6.10947 4.7959C6.06396 4.7959 6.01894 4.8054 5.97731 4.82378C5.93567 4.84217 5.89833 4.86904 5.86766 4.90267C5.837 4.9363 5.81368 4.97596 5.79921 5.01911C5.78474 5.06226 5.77943 5.10796 5.78361 5.15328L7.12838 19.7025C7.14589 19.8921 7.23357 20.0682 7.37423 20.1965C7.51489 20.3248 7.69838 20.3959 7.88874 20.3959H15.7849C15.9766 20.3958 16.1614 20.3241 16.3029 20.1947C16.4444 20.0654 16.5325 19.8878 16.5498 19.6968C16.669 18.3863 17.0311 14.7523 17.3636 11.4436C17.557 9.52011 17.7512 7.59673 17.9462 5.67343L17.985 5.29073L17.9951 5.19048L17.9978 5.16484L17.9984 5.1583L17.9985 5.15677L17.9986 5.15633L17.6731 5.12317L17.9987 5.15623C18.0033 5.1107 17.9983 5.06471 17.9841 5.02124C17.9698 4.97776 17.9466 4.93776 17.9159 4.90381C17.8852 4.86986 17.8477 4.84272 17.8059 4.82413C17.7641 4.80554 17.7189 4.79593 17.6731 4.7959H6.10947Z" stroke="#2F448C" stroke-linecap="round" stroke-linejoin="round"/>
<path fill-rule="evenodd" clip-rule="evenodd" d="M10.7298 11.7778C9.91769 11.7778 9.38184 12.7075 9.38184 13.8543C9.38184 15.001 9.91769 18.6179 10.7298 18.6179C11.2037 18.6179 11.2574 15.6143 11.894 15.6117C12.653 15.6144 12.5844 18.6179 13.0581 18.6179C13.8702 18.6179 14.406 15.001 14.406 13.8543C14.406 12.7075 13.8702 11.7778 13.0581 11.7778C12.6701 11.7778 12.282 12.1443 11.894 12.1443C11.5059 12.1443 11.1178 11.7778 10.7298 11.7778Z" fill="white"/>
<path d="M16.1642 6.61914L15.4541 11.1457" stroke="#11C5BB" stroke-linecap="round" stroke-linejoin="round"/>
</svg>
