<svg width="24" height="25" viewBox="0 0 24 25" fill="none" xmlns="http://www.w3.org/2000/svg">
<path d="M15.1779 3.41455C17.3444 3.41455 18.7738 5.90586 18.7738 8.97928C18.7738 9.97768 18.7073 10.5231 18.6269 11.3041C18.2107 15.3524 16.9375 21.7454 15.1779 21.7454C13.9141 21.7454 14.0974 13.6963 12.0724 13.6888C10.3744 13.6962 10.2308 21.7454 8.96695 21.7454C6.8004 21.7454 5.37109 12.0526 5.37109 8.97928C5.37109 5.90597 6.8004 3.41455 8.96695 3.41455C10.002 3.41455 11.0374 4.39659 12.0724 4.39659C13.1075 4.39659 14.1428 3.41455 15.1779 3.41455Z" fill="white"/>
<path d="M18.769 9.30677C18.7721 9.1907 18.7738 9.08139 18.7738 8.97928C18.7738 5.90586 17.3444 3.41455 15.1779 3.41455C14.1428 3.41455 13.1075 4.39659 12.0724 4.39659C11.0374 4.39659 10.002 3.41455 8.96695 3.41455C6.8004 3.41455 5.37109 5.90586 5.37109 8.97928C5.37109 12.0526 6.80051 21.7454 8.96695 21.7454C10.2308 21.7454 10.3744 13.6962 12.0724 13.6888C14.0974 13.6963 13.9141 21.7454 15.1779 21.7454C16.9375 21.7454 18.2107 15.3524 18.6269 11.3041" stroke="#2F448C" stroke-linecap="round" stroke-linejoin="round"/>
<path d="M18.2723 8.94141C19.9292 8.94141 21.2723 7.59828 21.2723 5.94141C21.2723 4.28453 19.9292 2.94141 18.2723 2.94141C16.6154 2.94141 15.2723 4.28453 15.2723 5.94141C15.2723 6.69959 15.5535 7.39199 16.0174 7.92021C16.1362 8.05548 16.2132 8.22533 16.2132 8.40544V9.59595L17.143 8.98199C17.3055 8.87464 17.5067 8.84944 17.6979 8.88642C17.8838 8.92242 18.0758 8.94141 18.2723 8.94141Z" fill="#11C5BB" stroke="#2F448C"/>
<path d="M17.89 4.95994C17.89 4.85868 17.9302 4.76156 18.0019 4.68996C18.0735 4.61835 18.1706 4.57813 18.2718 4.57812C18.3731 4.57813 18.4702 4.61835 18.5418 4.68996C18.6134 4.76156 18.6537 4.85868 18.6537 4.95994V5.55994H19.2537C19.3549 5.55994 19.452 5.60017 19.5236 5.67178C19.5952 5.74338 19.6355 5.8405 19.6355 5.94176C19.6355 6.04303 19.5952 6.14014 19.5236 6.21175C19.452 6.28335 19.3549 6.32358 19.2537 6.32358H18.6537V6.92358C18.6537 7.02484 18.6134 7.12196 18.5418 7.19357C18.4702 7.26517 18.3731 7.3054 18.2718 7.3054C18.1706 7.3054 18.0735 7.26517 18.0019 7.19357C17.9302 7.12196 17.89 7.02484 17.89 6.92358V6.32358H17.29C17.1888 6.32358 17.0916 6.28335 17.02 6.21175C16.9484 6.14014 16.9082 6.04303 16.9082 5.94176C16.9082 5.8405 16.9484 5.74338 17.02 5.67178C17.0916 5.60017 17.1888 5.55994 17.29 5.55994H17.89V4.95994Z" fill="white"/>
</svg>
