<svg width="24" height="25" viewBox="0 0 24 25" fill="none" xmlns="http://www.w3.org/2000/svg">
<path d="M14.1458 9.11621C15.6342 9.11621 16.6161 10.8246 16.6161 12.932C16.6161 13.6166 16.5705 13.9907 16.5153 14.5262C16.2293 17.3022 15.3546 21.686 14.1458 21.686C13.2775 21.686 13.4034 16.1665 12.0122 16.1614C10.8455 16.1665 10.7469 21.686 9.87868 21.686C8.39024 21.686 7.4082 15.0395 7.4082 12.932C7.4082 10.8246 8.39024 9.11621 9.87868 9.11621C10.5897 9.11621 11.3011 9.78963 12.0122 9.78963C12.7233 9.78963 13.4346 9.11621 14.1458 9.11621Z" fill="white"/>
<path d="M16.6129 13.1566C16.615 13.077 16.6161 13.002 16.6161 12.932C16.6161 10.8246 15.6342 9.11621 14.1458 9.11621C13.4346 9.11621 12.7233 9.78963 12.0122 9.78963C11.3011 9.78963 10.5898 9.11621 9.87868 9.11621C8.39024 9.11621 7.4082 10.8246 7.4082 12.932C7.4082 15.0395 8.39024 21.686 9.87868 21.686C10.7469 21.686 10.8455 16.1665 12.0122 16.1614C13.4034 16.1665 13.2775 21.686 14.1458 21.686C15.3546 21.686 16.2293 17.3022 16.5153 14.5262" stroke="#2F448C" stroke-linecap="round" stroke-linejoin="round"/>
<path fill-rule="evenodd" clip-rule="evenodd" d="M15.2188 7.52328H8.78047C8.63036 7.52328 8.50873 7.40448 8.50873 7.25797V3.53405C8.50873 3.41765 8.58651 3.31477 8.70051 3.28052C8.75584 3.26364 8.81508 3.26464 8.86981 3.28339C8.92453 3.30213 8.97195 3.33766 9.00531 3.38492L10.3901 5.3731L11.775 3.38492C11.8003 3.34888 11.834 3.3195 11.8731 3.29927C11.9122 3.27904 11.9556 3.26856 11.9996 3.26874C12.0896 3.26874 12.1739 3.31237 12.2244 3.38492L13.6093 5.3731L14.994 3.38492C15.0274 3.33771 15.0748 3.30222 15.1295 3.28348C15.1842 3.26474 15.2434 3.26371 15.2988 3.28052C15.4128 3.31477 15.4905 3.41754 15.4905 3.53405V7.25797C15.4905 7.40448 15.369 7.52328 15.2188 7.52328Z" fill="#11C5BB"/>
</svg>
