<svg width="24" height="25" viewBox="0 0 24 25" fill="none" xmlns="http://www.w3.org/2000/svg">
<path fill-rule="evenodd" clip-rule="evenodd" d="M10.978 21.3433H6.07107L6.42158 6.8877H10.6275L10.978 21.3433Z" fill="#4C84D9"/>
<path fill-rule="evenodd" clip-rule="evenodd" d="M9.51229 6.79512H7.36778L7.72516 3.97021H9.15491L9.51229 6.79512Z" fill="#11C5BB"/>
<path fill-rule="evenodd" clip-rule="evenodd" d="M10.6202 8.20781H6.25964L6.29542 6.79541H10.5843L10.6201 8.20781H10.6202Z" fill="white"/>
<path fill-rule="evenodd" clip-rule="evenodd" d="M10.942 21.3436H5.93815L5.97393 19.9312H10.9063L10.942 21.3436Z" fill="white"/>
<path fill-rule="evenodd" clip-rule="evenodd" d="M16.4062 12.2894C16.3919 12.126 16.3217 11.9725 16.2074 11.8548L14.616 10.2239V4.81212C14.616 4.42212 14.3047 4.10303 13.924 4.10303C13.5434 4.10303 13.2321 4.42212 13.2321 4.81212V10.4821C13.2321 10.4877 13.2327 10.4932 13.2329 10.4988C13.2284 10.6864 13.2949 10.8757 13.4339 11.0181L15.0311 12.655V20.7671C15.0311 21.1571 15.3424 21.4763 15.7229 21.4763C16.1036 21.4763 16.4149 21.1571 16.4149 20.7671V12.3966C16.4148 12.3607 16.4119 12.3249 16.4062 12.2894Z" fill="#4C84D9"/>
<path fill-rule="evenodd" clip-rule="evenodd" d="M18.0986 6.3572H14.5583V4.89844H18.0986C18.4856 4.89844 18.8021 5.22604 18.8021 5.62629V5.62935C18.8021 6.02971 18.4856 6.3572 18.0986 6.3572Z" fill="white"/>
<path fill-rule="evenodd" clip-rule="evenodd" d="M18.0986 7.81619H14.5583V6.35742H18.0986C18.4856 6.35742 18.8021 6.68502 18.8021 7.08528V7.08833C18.8021 7.48869 18.4856 7.81619 18.0986 7.81619Z" fill="white"/>
<path fill-rule="evenodd" clip-rule="evenodd" d="M18.0986 9.14236H14.5583V7.68359H18.0986C18.4856 7.68359 18.8021 8.01108 18.8021 8.41145V8.4145C18.8021 8.81487 18.4856 9.14236 18.0986 9.14236Z" fill="white"/>
<path fill-rule="evenodd" clip-rule="evenodd" d="M11.0541 8.30152V8.30086L11.0189 6.86719C11.0157 6.77485 10.9767 6.68737 10.9102 6.62321C10.8437 6.55904 10.7549 6.52319 10.6625 6.52322H9.90796L9.5904 4.01381C9.56825 3.83719 9.41651 3.70508 9.23695 3.70508H7.81113C7.63145 3.70508 7.47971 3.83708 7.45756 4.01381L7.14044 6.52322C6.75589 6.52322 6.07571 6.37944 6.02815 6.90373C5.98647 7.36268 5.99378 7.84071 5.99378 8.30152L5.67273 21.3803C5.67055 21.4751 5.70687 21.5671 5.77396 21.635C5.80732 21.6688 5.84706 21.6956 5.89087 21.7138C5.93467 21.7321 5.98167 21.7415 6.02913 21.7414H11.0188C11.1149 21.7414 11.2069 21.703 11.274 21.635C11.3071 21.6015 11.333 21.5617 11.3504 21.5179C11.3678 21.4742 11.3763 21.4274 11.3752 21.3803L11.054 8.30152H11.0541ZM8.12585 4.40959H8.92211L9.18938 6.52322H7.85858L8.12585 4.40959ZM6.73309 7.22784H10.315L10.3328 7.93235H6.71531L6.73309 7.22773V7.22784ZM6.69884 8.63686H10.349L10.6189 19.6278H6.42905L6.69884 8.63686ZM6.39447 21.0369L6.41236 20.3323H10.6357L10.6536 21.0369H6.39447Z" fill="#2F448C"/>
<path fill-rule="evenodd" clip-rule="evenodd" d="M8.52404 13.7843C8.34087 13.7843 8.1924 13.624 8.1924 13.4263V10.5616C8.1924 10.3639 8.34087 10.2036 8.52404 10.2036C8.7072 10.2036 8.85567 10.364 8.85567 10.5616V13.4263C8.85567 13.624 8.7072 13.7843 8.52404 13.7843Z" fill="#2F448C"/>
<path fill-rule="evenodd" clip-rule="evenodd" d="M8.52415 15.1103C8.43769 15.1081 8.3555 15.0723 8.29511 15.0104C8.23472 14.9485 8.20089 14.8654 8.20085 14.779C8.20081 14.6925 8.23455 14.6094 8.29488 14.5474C8.35521 14.4855 8.43737 14.4495 8.52382 14.4473H8.52415C8.56768 14.4473 8.61078 14.4558 8.651 14.4725C8.69122 14.4892 8.72776 14.5136 8.75853 14.5444C8.78931 14.5752 8.81372 14.6117 8.83037 14.6519C8.84702 14.6922 8.85558 14.7353 8.85556 14.7788C8.85558 14.8223 8.84702 14.8654 8.83037 14.9057C8.81372 14.9459 8.78931 14.9824 8.75853 15.0132C8.72776 15.044 8.69122 15.0684 8.651 15.0851C8.61078 15.1017 8.56768 15.1103 8.52415 15.1103Z" fill="#2F448C"/>
<path fill-rule="evenodd" clip-rule="evenodd" d="M19.1995 5.60806C19.1995 5.02497 18.7235 4.55119 18.1386 4.55119H14.9111C14.8128 4.06901 14.3892 3.70508 13.883 3.70508C13.3045 3.70508 12.8338 4.18071 12.8338 4.76468V10.421C12.8338 10.4289 12.8341 10.4366 12.8345 10.4447C12.8313 10.7316 12.9388 10.9999 13.1376 11.2025L14.6427 12.7328V20.6818C14.6427 21.2659 15.1133 21.7414 15.6921 21.7414C16.2706 21.7414 16.7413 21.2663 16.7413 20.6818V12.3312C16.7413 12.284 16.7377 12.235 16.7299 12.1818C16.7058 11.9415 16.6005 11.7167 16.4315 11.5442L14.9323 10.02V9.49159H18.1386C18.7235 9.49159 19.1995 9.01737 19.1995 8.43188C19.1995 8.16133 19.0969 7.91435 18.9282 7.72737C19.1033 7.53334 19.1999 7.28121 19.1995 7.01991C19.1995 6.74937 19.0969 6.50239 18.9282 6.31541C19.1032 6.12138 19.1999 5.86931 19.1995 5.60806ZM15.9265 12.037C15.9843 12.0963 16.0197 12.1739 16.0265 12.2565C16.0272 12.2633 16.0279 12.2698 16.0289 12.2768C16.0325 12.2987 16.0339 12.3163 16.0339 12.3312V20.6818C16.0339 20.8776 15.8805 21.0369 15.6921 21.0369C15.5034 21.0369 15.3499 20.8776 15.3499 20.6818V12.5891C15.3499 12.4967 15.3135 12.4082 15.2488 12.3425L13.6429 10.7093C13.5754 10.6405 13.5393 10.5473 13.5418 10.4466V10.4302C13.5418 10.4242 13.5413 10.4186 13.5411 10.4128V4.76457C13.5411 4.56875 13.6946 4.40948 13.883 4.40948C14.0718 4.40948 14.2251 4.56875 14.2251 4.76457V10.1635C14.2251 10.2554 14.2614 10.3441 14.3261 10.41L15.9265 12.0369V12.037ZM18.1386 8.78697H14.9327V8.07962H18.1386C18.2325 8.07962 18.3224 8.11689 18.3888 8.18323C18.4551 8.24956 18.4924 8.33954 18.4924 8.43335C18.4924 8.52717 18.4551 8.61714 18.3888 8.68347C18.3224 8.74981 18.2325 8.78708 18.1386 8.78708V8.78697ZM18.1386 7.37501H14.9323V6.66766H18.1386C18.2324 6.66766 18.3224 6.70492 18.3887 6.77125C18.4551 6.83757 18.4923 6.92753 18.4923 7.02133C18.4923 7.11513 18.4551 7.20509 18.3887 7.27142C18.3224 7.33774 18.2324 7.37501 18.1386 7.37501ZM18.1386 5.96315H14.9327V5.25581H18.1386C18.2325 5.25581 18.3224 5.29307 18.3888 5.35941C18.4551 5.42575 18.4924 5.51572 18.4924 5.60953C18.4924 5.70335 18.4551 5.79332 18.3888 5.85966C18.3224 5.92599 18.2325 5.96326 18.1386 5.96326V5.96315Z" fill="#2F448C"/>
</svg>
