<svg width="24" height="25" viewBox="0 0 24 25" fill="none" xmlns="http://www.w3.org/2000/svg">
<path d="M10.0266 6.49512C11.4875 6.49512 12.4512 8.17501 12.4512 10.2474C12.4512 10.9205 12.4065 11.2884 12.3522 11.815C12.0716 14.5446 11.213 18.8554 10.0266 18.8554C9.17443 18.8554 9.29803 13.428 7.93264 13.4229C6.78763 13.428 6.69075 18.8554 5.83864 18.8554C4.37792 18.8554 3.41399 12.3197 3.41399 10.2474C3.41399 8.17501 4.37781 6.49512 5.83864 6.49512C6.53661 6.49512 7.23468 7.1573 7.93264 7.1573C8.63061 7.1573 9.32868 6.49512 10.0266 6.49512Z" fill="white"/>
<path d="M12.448 10.4682C12.4501 10.3899 12.4512 10.3162 12.4512 10.2474C12.4512 8.17501 11.4875 6.49512 10.0266 6.49512C9.32868 6.49512 8.63061 7.1573 7.93264 7.1573C7.23468 7.1573 6.53661 6.49512 5.83864 6.49512C4.37781 6.49512 3.41399 8.17512 3.41399 10.2474C3.41399 12.3197 4.37781 18.8554 5.83864 18.8554C6.69075 18.8554 6.78774 13.428 7.93264 13.4229C9.29803 13.428 9.17443 18.8554 10.0266 18.8554C11.213 18.8554 12.0716 14.5446 12.3522 11.815" stroke="#2F448C" stroke-linecap="round" stroke-linejoin="round"/>
<path d="M18.4271 6.49512C19.8879 6.49512 20.8517 8.17501 20.8517 10.2474C20.8517 10.9205 20.8069 11.2884 20.7527 11.815C20.472 14.5446 19.6135 18.8554 18.4271 18.8554C17.5749 18.8554 17.6985 13.428 16.3331 13.4229C15.1881 13.428 15.0912 18.8554 14.2391 18.8554C12.7783 18.8554 11.8145 12.3197 11.8145 10.2474C11.8145 8.17501 12.7783 6.49512 14.2391 6.49512C14.9371 6.49512 15.6351 7.1573 16.3331 7.1573C17.0311 7.1573 17.7291 6.49512 18.4271 6.49512Z" fill="white"/>
<path d="M20.8485 10.4682C20.8506 10.3899 20.8517 10.3162 20.8517 10.2474C20.8517 8.17501 19.8879 6.49512 18.4271 6.49512C17.7291 6.49512 17.0311 7.1573 16.3331 7.1573C15.6351 7.1573 14.9371 6.49512 14.2391 6.49512C12.7783 6.49512 11.8145 8.17512 11.8145 10.2474C11.8145 12.3197 12.7783 18.8554 14.2391 18.8554C15.0912 18.8554 15.1881 13.428 16.3331 13.4229C17.6985 13.428 17.5749 18.8554 18.4271 18.8554C19.6135 18.8554 20.472 14.5446 20.7527 11.815" stroke="#2F448C" stroke-linecap="round" stroke-linejoin="round"/>
<path d="M1.74512 10.6324C1.74512 10.8205 1.81982 11.0009 1.95281 11.1338C2.08579 11.2668 2.26615 11.3415 2.45421 11.3415H21.6542C21.8423 11.3415 22.0226 11.2668 22.1556 11.1338C22.2886 11.0009 22.3633 10.8205 22.3633 10.6324C22.3633 10.4444 22.2886 10.264 22.1556 10.131C22.0226 9.99805 21.8423 9.92334 21.6542 9.92334H2.45421C2.26615 9.92334 2.08579 9.99805 1.95281 10.131C1.81982 10.264 1.74512 10.4444 1.74512 10.6324Z" fill="#4C84D9" stroke="#2F448C"/>
<path d="M10.0195 8.8291H5.8217C5.7012 8.8291 5.60352 8.92678 5.60352 9.04728V12.1018C5.60352 12.2223 5.7012 12.32 5.8217 12.32H10.0195C10.14 12.32 10.2377 12.2223 10.2377 12.1018V9.04728C10.2377 8.92678 10.14 8.8291 10.0195 8.8291Z" fill="#11C5BB"/>
<path d="M5.60352 10.4424V10.8838H6.41264V11.145C6.41264 11.2318 6.44712 11.315 6.5085 11.3764C6.56987 11.4378 6.65312 11.4723 6.73992 11.4723H6.96802C7.05482 11.4723 7.13807 11.4378 7.19944 11.3764C7.26082 11.315 7.2953 11.2318 7.2953 11.145V10.8838H8.47228V11.145C8.47228 11.2318 8.50676 11.315 8.56814 11.3764C8.62951 11.4378 8.71275 11.4723 8.79955 11.4723H9.02766C9.11446 11.4723 9.1977 11.4378 9.25908 11.3764C9.32045 11.315 9.35493 11.2318 9.35493 11.145V10.8838H10.2377V10.4424H9.35493V10.1813C9.35493 10.0945 9.32045 10.0112 9.25908 9.94986C9.1977 9.88848 9.11446 9.854 9.02766 9.854H8.79955C8.71275 9.854 8.62951 9.88848 8.56814 9.94986C8.50676 10.0112 8.47228 10.0945 8.47228 10.1813V10.4424H7.2953V10.1813C7.2953 10.0945 7.26082 10.0112 7.19944 9.94986C7.13807 9.88848 7.05482 9.854 6.96802 9.854H6.73992C6.65312 9.854 6.56987 9.88848 6.5085 9.94986C6.44712 10.0112 6.41264 10.0945 6.41264 10.1813V10.4424H5.60352Z" fill="#2F448C"/>
<path d="M18.4189 8.8291H14.2211C14.1006 8.8291 14.0029 8.92678 14.0029 9.04728V12.1018C14.0029 12.2223 14.1006 12.32 14.2211 12.32H18.4189C18.5394 12.32 18.6371 12.2223 18.6371 12.1018V9.04728C18.6371 8.92678 18.5394 8.8291 18.4189 8.8291Z" fill="#11C5BB"/>
<path d="M14.0029 10.4424V10.8838H14.8121V11.145C14.8121 11.2318 14.8465 11.315 14.9079 11.3764C14.9693 11.4378 15.0525 11.4723 15.1393 11.4723H15.3674C15.4542 11.4723 15.5375 11.4378 15.5989 11.3764C15.6602 11.315 15.6947 11.2318 15.6947 11.145V10.8838H16.8717V11.145C16.8717 11.2318 16.9062 11.315 16.9676 11.3764C17.0289 11.4378 17.1122 11.4723 17.199 11.4723H17.4271C17.5139 11.4723 17.5971 11.4378 17.6585 11.3764C17.7199 11.315 17.7543 11.2318 17.7543 11.145V10.8838H18.6371V10.4424H17.7543V10.1813C17.7543 10.0945 17.7199 10.0112 17.6585 9.94986C17.5971 9.88848 17.5139 9.854 17.4271 9.854H17.199C17.1122 9.854 17.0289 9.88848 16.9676 9.94986C16.9062 10.0112 16.8717 10.0945 16.8717 10.1813V10.4424H15.6947V10.1813C15.6947 10.0945 15.6602 10.0112 15.5989 9.94986C15.5375 9.88848 15.4542 9.854 15.3674 9.854H15.1393C15.0525 9.854 14.9693 9.88848 14.9079 9.94986C14.8465 10.0112 14.8121 10.0945 14.8121 10.1813V10.4424H14.0029Z" fill="#2F448C"/>
</svg>
