<svg width="221" height="221" viewBox="0 0 221 221" fill="none" xmlns="http://www.w3.org/2000/svg">
<g clip-path="url(#clip0_5933_1521)">
<path fill-rule="evenodd" clip-rule="evenodd" d="M157.699 181.222H139.802C142.836 181.222 145.297 183.847 145.297 187.087V194.589H163.194V187.087C163.194 183.847 160.733 181.222 157.699 181.222Z" fill="#4C84D9"/>
<mask id="path-2-outside-1_5933_1521" maskUnits="userSpaceOnUse" x="23.6997" y="94.5166" width="170" height="74" fill="black">
<rect fill="white" x="23.6997" y="94.5166" width="170" height="74"/>
<path fill-rule="evenodd" clip-rule="evenodd" d="M35.9818 101.517C34.4345 101.517 33.004 102.351 32.2469 103.694C31.0924 105.745 31.8247 108.352 33.8798 109.506L86.0719 138.789C86.7104 139.147 87.4353 139.336 88.1675 139.336H138.478C138.916 139.336 139.348 139.44 139.738 139.64L179.847 160.201C180.459 160.515 181.114 160.674 181.794 160.674C183.408 160.674 184.867 159.785 185.603 158.355C186.124 157.341 186.219 156.184 185.87 155.099C185.521 154.014 184.768 153.129 183.753 152.609L142.131 131.273C141.529 130.964 140.854 130.801 140.178 130.801H90.0083C89.5355 130.801 89.0691 130.679 88.6569 130.448L38.0691 102.065C37.4298 101.706 36.7086 101.517 35.9818 101.517Z"/>
</mask>
<path fill-rule="evenodd" clip-rule="evenodd" d="M35.9818 101.517C34.4345 101.517 33.004 102.351 32.2469 103.694C31.0924 105.745 31.8247 108.352 33.8798 109.506L86.0719 138.789C86.7104 139.147 87.4353 139.336 88.1675 139.336H138.478C138.916 139.336 139.348 139.44 139.738 139.64L179.847 160.201C180.459 160.515 181.114 160.674 181.794 160.674C183.408 160.674 184.867 159.785 185.603 158.355C186.124 157.341 186.219 156.184 185.87 155.099C185.521 154.014 184.768 153.129 183.753 152.609L142.131 131.273C141.529 130.964 140.854 130.801 140.178 130.801H90.0083C89.5355 130.801 89.0691 130.679 88.6569 130.448L38.0691 102.065C37.4298 101.706 36.7086 101.517 35.9818 101.517Z" fill="#11C5BB"/>
<path d="M32.2469 103.694L26.1496 100.256L26.1466 100.261L32.2469 103.694ZM33.8798 109.506L30.4538 115.61L30.4546 115.611L33.8798 109.506ZM86.0719 138.789L82.6468 144.894L82.6472 144.894L86.0719 138.789ZM139.738 139.64L136.541 145.868L136.545 145.869L139.738 139.64ZM179.847 160.201L176.653 166.43L176.654 166.43L179.847 160.201ZM185.603 158.355L191.827 161.559L191.828 161.556L185.603 158.355ZM185.87 155.099L192.535 152.958L192.533 152.953L185.87 155.099ZM183.753 152.609L186.946 146.38L186.946 146.379L183.753 152.609ZM142.131 131.273L138.936 137.501L138.937 137.502L142.131 131.273ZM88.6569 130.448L92.0842 124.344L92.0821 124.343L88.6569 130.448ZM38.0691 102.065L34.6415 108.168L34.644 108.17L38.0691 102.065ZM35.9818 94.5166C31.9164 94.5166 28.1515 96.7055 26.1496 100.256L38.3442 107.132C37.8565 107.997 36.9526 108.517 35.9818 108.517V94.5166ZM26.1466 100.261C23.0914 105.69 25.0301 112.566 30.4538 115.61L37.3057 103.402C38.6192 104.139 39.0934 105.801 38.3473 107.127L26.1466 100.261ZM30.4546 115.611L82.6468 144.894L89.4971 132.684L37.3049 103.401L30.4546 115.611ZM82.6472 144.894C84.3334 145.84 86.2378 146.336 88.1675 146.336V132.336C88.6327 132.336 89.0874 132.454 89.4967 132.684L82.6472 144.894ZM88.1675 146.336H138.478V132.336H88.1675V146.336ZM138.478 146.336C137.81 146.336 137.145 146.178 136.541 145.868L142.934 133.413C141.55 132.702 140.022 132.336 138.478 132.336V146.336ZM136.545 145.869L176.653 166.43L183.04 153.972L142.931 133.411L136.545 145.869ZM176.654 166.43C178.243 167.245 179.991 167.674 181.794 167.674V153.674C182.237 153.674 182.676 153.785 183.04 153.972L176.654 166.43ZM181.794 167.674C186.021 167.674 189.887 165.327 191.827 161.559L179.379 155.152C179.846 154.243 180.794 153.674 181.794 153.674V167.674ZM191.828 161.556C193.199 158.889 193.451 155.811 192.535 152.958L179.206 157.24C178.987 156.558 179.049 155.793 179.377 155.155L191.828 161.556ZM192.533 152.953C191.613 150.096 189.61 147.745 186.946 146.38L180.559 158.838C179.927 158.513 179.428 157.931 179.207 157.245L192.533 152.953ZM186.946 146.379L145.324 125.043L138.937 137.502L180.56 158.838L186.946 146.379ZM145.325 125.044C143.732 124.227 141.961 123.801 140.178 123.801V137.801C139.746 137.801 139.326 137.701 138.936 137.501L145.325 125.044ZM140.178 123.801H90.0083V137.801H140.178V123.801ZM90.0083 123.801C90.7371 123.801 91.4507 123.989 92.0842 124.344L85.2297 136.552C86.6874 137.37 88.3339 137.801 90.0083 137.801V123.801ZM92.0821 124.343L41.4943 95.9601L34.644 108.17L85.2318 136.553L92.0821 124.343ZM41.4968 95.9615C39.8183 95.0188 37.9179 94.5166 35.9818 94.5166V108.517C35.4993 108.517 35.0412 108.393 34.6415 108.168L41.4968 95.9615Z" fill="#2F448C" mask="url(#path-2-outside-1_5933_1521)"/>
<path d="M61.5702 192.422V195.922H65.0702H161.065H164.565V192.422V187.953C164.565 184.447 161.731 181.559 158.191 181.559H67.9442C64.404 181.559 61.5702 184.447 61.5702 187.953V192.422Z" fill="white" stroke="#2F448C" stroke-width="7"/>
<path d="M120.25 154.63H123.75V151.13V147.13V143.63H120.25H107.25H103.75V147.13V151.13V154.63H107.25H120.25Z" fill="white" stroke="#2F448C" stroke-width="7"/>
<path d="M96.75 176.13V179.63H100.25H127.25H130.75V176.13V168.061V156.13V152.63H127.25H100.25H96.75V156.13V156.169V156.207V156.246V156.285V156.325V156.364V156.404V156.443V156.483V156.523V156.563V156.603V156.644V156.685V156.725V156.766V156.807V156.848V156.89V156.931V156.973V157.014V157.056V157.098V157.14V157.182V157.225V157.267V157.31V157.353V157.396V157.439V157.482V157.525V157.569V157.612V157.656V157.7V157.743V157.787V157.832V157.876V157.92V157.965V158.009V158.054V158.099V158.144V158.189V158.234V158.28V158.325V158.37V158.416V158.462V158.508V158.554V158.6V158.646V158.692V158.738V158.785V158.831V158.878V158.925V158.972V159.019V159.066V159.113V159.16V159.208V159.255V159.302V159.35V159.398V159.446V159.493V159.541V159.589V159.638V159.686V159.734V159.783V159.831V159.88V159.928V159.977V160.026V160.075V160.123V160.172V160.222V160.271V160.32V160.369V160.419V160.468V160.518V160.567V160.617V160.667V160.716V160.766V160.816V160.866V160.916V160.966V161.016V161.067V161.117V161.167V161.217V161.268V161.318V161.369V161.42V161.47V161.521V161.572V161.622V161.673V161.724V161.775V161.826V161.877V161.928V161.979V162.03V162.082V162.133V162.184V162.235V162.287V162.338V162.39V162.441V162.493V162.544V162.596V162.647V162.699V162.75V162.802V162.854V162.905V162.957V163.009V163.061V163.113V163.164V163.216V163.268V163.32V163.372V163.424V163.476V163.528V163.58V163.632V163.684V163.736V163.788V163.84V163.892V163.944V163.996V164.048V164.1V164.152V164.204V164.256V164.309V164.361V164.413V164.465V164.517V164.569V164.621V164.673V164.725V164.777V164.829V164.881V164.933V164.985V165.037V165.089V165.141V165.193V165.245V165.297V165.349V165.401V165.453V165.505V165.557V165.609V165.66V165.712V165.764V165.816V165.867V165.919V165.971V166.022V166.074V166.126V166.177V166.229V166.28V166.332V166.383V166.434V166.486V166.537V166.588V166.639V166.691V166.742V166.793V166.844V166.895V166.946V166.997V167.048V167.099V167.149V167.2V167.251V167.301V167.352V167.402V167.453V167.503V167.554V167.604V167.654V167.704V167.755V167.805V167.855V167.905V167.955V168.004V168.054V168.104V168.153V168.203V168.253V168.302V168.351V168.401V168.45V168.499V168.548V168.597V168.646V168.695V168.744V168.792V168.841V168.889V168.938V168.986V169.034V169.083V169.131V169.179V169.227V169.275V169.322V169.37V169.418V169.465V169.513V169.56V169.607V169.654V169.701V169.748V169.795V169.842V169.888V169.935V169.981V170.028V170.074V170.12V170.166V170.212V170.258V170.304V170.349V170.395V170.44V170.485V170.531V170.576V170.621V170.665V170.71V170.755V170.799V170.844V170.888V170.932V170.976V171.02V171.063V171.107V171.151V171.194V171.237V171.28V171.323V171.366V171.409V171.452V171.494V171.536V171.579V171.621V171.663V171.705V171.746V171.788V171.829V171.87V171.912V171.952V171.993V172.034V172.075V172.115V172.155V172.195V172.235V172.275V172.315V172.354V172.394V172.433V172.472V172.511V172.55V172.588V172.627V172.665V172.703V172.741V172.779V172.816V172.854V172.891V172.928V172.965V173.002V173.039V173.075V173.112V173.148V173.184V173.219V173.255V173.291V173.326V173.361V173.396V173.431V173.465V173.5V173.534V173.568V173.602V173.635V173.669V173.702V173.735V173.768V173.801V173.834V173.866V173.898V173.93V173.962V173.993V174.025V174.056V174.087V174.118V174.149V174.179V174.209V174.239V174.269V174.299V174.328V174.357V174.387V174.415V174.444V174.472V174.501V174.529V174.556V174.584V174.611V174.638V174.665V174.692V174.719V174.745V174.771V174.797V174.823V174.848V174.873V174.898V174.923V174.947V174.972V174.996V175.02V175.043V175.067V175.09V175.113V175.136V175.158V175.18V175.202V175.224V175.246V175.267V175.288V175.309V175.33V175.35V175.37V175.39V175.41V175.429V175.448V175.467V175.486V175.504V175.522V175.54V175.558V175.575V175.593V175.61V175.626V175.643V175.659V175.675V175.69V175.706V175.721V175.736V175.75V175.765V175.779V175.793V175.806V175.82V175.833V175.845V175.858V175.87V175.882V175.894V175.905V175.916V175.927V175.938V175.948V175.958V175.968V175.978V175.987V175.996V176.004V176.013V176.021V176.029V176.036V176.044V176.05V176.057V176.064V176.07V176.075V176.081V176.086V176.091V176.096V176.1V176.104V176.108V176.111V176.115V176.118V176.12V176.122V176.124V176.126V176.127V176.129V176.129V176.13C96.75 176.13 96.75 176.13 100.25 176.13H96.75Z" fill="white" stroke="#2F448C" stroke-width="7"/>
<path d="M89.75 106.13V109.63H93.25H169.25H172.75V106.13V91.1299V87.6299H169.25H93.25H89.75V91.1299V106.13Z" fill="white" stroke="#2F448C" stroke-width="7"/>
<path d="M121.75 123.13V126.63H125.25H137.25H140.75V123.13V115.13V111.63H137.25H125.25H121.75V115.13V123.13Z" fill="white" stroke="#2F448C" stroke-width="7"/>
<path fill-rule="evenodd" clip-rule="evenodd" d="M132.02 90.9936C130.49 90.9936 129.25 89.7577 129.25 88.2328V48.1988C129.25 36.1443 119.413 26.338 107.32 26.338C101.462 26.338 95.9547 28.6119 91.8124 32.7402C91.7709 32.7826 91.7284 32.8221 91.6841 32.8617L89.2617 34.9857C88.1142 35.9933 86.3648 35.8829 85.353 34.7363C84.3421 33.5924 84.4547 31.8476 85.6031 30.8399L87.96 28.7721C93.1418 23.6416 100.013 20.8164 107.32 20.8164C122.467 20.8164 134.789 33.1 134.789 48.1988V88.2328C134.789 89.7577 133.549 90.9936 132.02 90.9936Z" fill="#2F448C"/>
<path d="M62.8413 29.9034L59.4541 32.3008L62.3884 35.2351L85.2809 58.1276L88.2152 61.0619L90.6126 57.6747C92.9784 54.3321 94.2523 50.3493 94.2523 46.1892C94.2523 40.8729 92.1744 35.8583 88.416 32.1C84.6578 28.3417 79.6432 26.2637 74.3277 26.2637C70.1678 26.2637 66.1841 27.5374 62.8413 29.9034Z" fill="#4C84D9" stroke="#2F448C" stroke-width="7"/>
<path fill-rule="evenodd" clip-rule="evenodd" d="M37.0425 101.019C35.6581 101.019 34.5361 99.8008 34.5361 98.2973V88.7036C34.5361 87.2001 35.6581 85.9814 37.0425 85.9814C38.4268 85.9814 39.5488 87.2001 39.5488 88.7036V98.2973C39.5488 99.8008 38.4268 101.019 37.0425 101.019Z" fill="#2F448C"/>
<mask id="path-12-outside-2_5933_1521" maskUnits="userSpaceOnUse" x="27.25" y="61.1299" width="20" height="30" fill="black">
<rect fill="white" x="27.25" y="61.1299" width="20" height="30"/>
<path fill-rule="evenodd" clip-rule="evenodd" d="M36.7563 83.1679C35.372 83.1679 34.25 81.9492 34.25 80.4457V70.852C34.25 69.3485 35.372 68.1299 36.7563 68.1299C38.1407 68.1299 39.2627 69.3485 39.2627 70.852V80.4457C39.2627 81.9492 38.1407 83.1679 36.7563 83.1679Z"/>
</mask>
<path fill-rule="evenodd" clip-rule="evenodd" d="M36.7563 83.1679C35.372 83.1679 34.25 81.9492 34.25 80.4457V70.852C34.25 69.3485 35.372 68.1299 36.7563 68.1299C38.1407 68.1299 39.2627 69.3485 39.2627 70.852V80.4457C39.2627 81.9492 38.1407 83.1679 36.7563 83.1679Z" fill="#11C5BB"/>
<path d="M36.7563 76.1679C39.7711 76.1679 41.25 78.6388 41.25 80.4457H27.25C27.25 85.2597 30.9729 90.1679 36.7563 90.1679V76.1679ZM41.25 80.4457V70.852H27.25V80.4457H41.25ZM41.25 70.852C41.25 72.6589 39.7711 75.1299 36.7563 75.1299V61.1299C30.9729 61.1299 27.25 66.0381 27.25 70.852H41.25ZM36.7563 75.1299C33.7416 75.1299 32.2627 72.6589 32.2627 70.852H46.2627C46.2627 66.0381 42.5398 61.1299 36.7563 61.1299V75.1299ZM32.2627 70.852V80.4457H46.2627V70.852H32.2627ZM32.2627 80.4457C32.2627 78.6388 33.7416 76.1679 36.7563 76.1679V90.1679C42.5398 90.1679 46.2627 85.2597 46.2627 80.4457H32.2627Z" fill="#2F448C" mask="url(#path-12-outside-2_5933_1521)"/>
<path d="M139.75 84.1299V87.6299H143.25H146.25H149.75V84.1299V76.1299V72.6299H146.25H143.25H139.75V76.1299V84.1299Z" fill="white" stroke="#2F448C" stroke-width="7"/>
<path d="M157.75 84.1299V87.6299H161.25H164.25H167.75V84.1299V76.1299V72.6299H164.25H161.25H157.75V76.1299V84.1299Z" fill="white" stroke="#2F448C" stroke-width="7"/>
<path fill-rule="evenodd" clip-rule="evenodd" d="M118.081 167.02C118.081 169.327 116.21 171.197 113.904 171.197C111.596 171.197 109.726 169.327 109.726 167.02C109.726 164.713 111.596 162.843 113.904 162.843C116.21 162.843 118.081 164.713 118.081 167.02Z" fill="#2F448C"/>
</g>
<defs>
<clipPath id="clip0_5933_1521">
<rect width="220" height="220" fill="white" transform="translate(0.25 0.129883)"/>
</clipPath>
</defs>
</svg>
