<svg width="25" height="24" viewBox="0 0 25 24" fill="none" xmlns="http://www.w3.org/2000/svg">
<path fill-rule="evenodd" clip-rule="evenodd" d="M5.51563 8.96669C6.04138 8.43499 6.90047 8.43611 7.42483 8.96918L12.5835 14.2136L17.7422 8.96918C18.2665 8.43611 19.1256 8.43499 19.6514 8.96669C20.1679 9.48904 20.1679 10.3297 19.6514 10.8521L12.5835 18L5.51563 10.8521C4.99914 10.3297 4.99914 9.48904 5.51563 8.96669Z" fill="#3399FF"/>
<mask id="mask0_5947_2083" style="mask-type:luminance" maskUnits="userSpaceOnUse" x="5" y="8" width="16" height="10">
<path fill-rule="evenodd" clip-rule="evenodd" d="M5.51563 8.96669C6.04138 8.43499 6.90047 8.43611 7.42483 8.96918L12.5835 14.2136L17.7422 8.96918C18.2665 8.43611 19.1256 8.43499 19.6514 8.96669C20.1679 9.48904 20.1679 10.3297 19.6514 10.8521L12.5835 18L5.51563 10.8521C4.99914 10.3297 4.99914 9.48904 5.51563 8.96669Z" fill="white"/>
</mask>
<g mask="url(#mask0_5947_2083)">
</g>
</svg>
