<svg width="24" height="25" viewBox="0 0 24 25" fill="none" xmlns="http://www.w3.org/2000/svg">
<path fill-rule="evenodd" clip-rule="evenodd" d="M12.7788 12.5981L16.517 14.817C16.9864 15.0956 17.1428 15.7008 16.8672 16.1719C16.5951 16.6371 15.9974 16.7937 15.5322 16.5216C15.5252 16.5175 10.7644 13.6262 10.7644 13.6262V8.23317C10.7644 7.67691 11.2154 7.22596 11.7716 7.22596C12.3279 7.22596 12.7788 7.67691 12.7788 8.23317V12.5981ZM12 20.5288C13.4423 20.5288 14.7885 20.1603 16.0385 19.4231C17.2564 18.7179 18.2179 17.7564 18.9231 16.5385C19.6603 15.2885 20.0288 13.9423 20.0288 12.5C20.0288 11.0577 19.6603 9.71154 18.9231 8.46154C18.2179 7.24358 17.2564 6.28205 16.0385 5.57692C14.7885 4.83974 13.4423 4.47115 12 4.47115C10.5577 4.47115 9.21154 4.83974 7.96154 5.57692C6.74358 6.28205 5.78205 7.24358 5.07692 8.46154C4.33974 9.71154 3.97115 11.0577 3.97115 12.5C3.97115 13.9423 4.33974 15.2885 5.07692 16.5385C5.78205 17.7564 6.74358 18.7179 7.96154 19.4231C9.21154 20.1603 10.5577 20.5288 12 20.5288ZM12 2.5C13.8269 2.5 15.5176 2.95673 17.0721 3.87019C18.5785 4.73558 19.7644 5.92147 20.6298 7.42788C21.5433 8.98238 22 10.6731 22 12.5C22 14.3269 21.5433 16.0176 20.6298 17.5721C19.7644 19.0785 18.5785 20.2644 17.0721 21.1298C15.5176 22.0433 13.8269 22.5 12 22.5C10.1731 22.5 8.48238 22.0433 6.92788 21.1298C5.42147 20.2484 4.23558 19.0545 3.37019 17.5481C2.45673 15.9936 2 14.3109 2 12.5C2 10.6891 2.45673 9.00642 3.37019 7.45192C4.25161 5.94551 5.44551 4.75161 6.95192 3.87019C8.50642 2.95673 10.1891 2.5 12 2.5Z" fill="#3399FF"/>
<mask id="mask0_5947_126" style="mask-type:luminance" maskUnits="userSpaceOnUse" x="2" y="2" width="20" height="21">
<path fill-rule="evenodd" clip-rule="evenodd" d="M12.7788 12.5981L16.517 14.817C16.9864 15.0956 17.1428 15.7008 16.8672 16.1719C16.5951 16.6371 15.9974 16.7937 15.5322 16.5216C15.5252 16.5175 10.7644 13.6262 10.7644 13.6262V8.23317C10.7644 7.67691 11.2154 7.22596 11.7716 7.22596C12.3279 7.22596 12.7788 7.67691 12.7788 8.23317V12.5981ZM12 20.5288C13.4423 20.5288 14.7885 20.1603 16.0385 19.4231C17.2564 18.7179 18.2179 17.7564 18.9231 16.5385C19.6603 15.2885 20.0288 13.9423 20.0288 12.5C20.0288 11.0577 19.6603 9.71154 18.9231 8.46154C18.2179 7.24358 17.2564 6.28205 16.0385 5.57692C14.7885 4.83974 13.4423 4.47115 12 4.47115C10.5577 4.47115 9.21154 4.83974 7.96154 5.57692C6.74358 6.28205 5.78205 7.24358 5.07692 8.46154C4.33974 9.71154 3.97115 11.0577 3.97115 12.5C3.97115 13.9423 4.33974 15.2885 5.07692 16.5385C5.78205 17.7564 6.74358 18.7179 7.96154 19.4231C9.21154 20.1603 10.5577 20.5288 12 20.5288ZM12 2.5C13.8269 2.5 15.5176 2.95673 17.0721 3.87019C18.5785 4.73558 19.7644 5.92147 20.6298 7.42788C21.5433 8.98238 22 10.6731 22 12.5C22 14.3269 21.5433 16.0176 20.6298 17.5721C19.7644 19.0785 18.5785 20.2644 17.0721 21.1298C15.5176 22.0433 13.8269 22.5 12 22.5C10.1731 22.5 8.48238 22.0433 6.92788 21.1298C5.42147 20.2484 4.23558 19.0545 3.37019 17.5481C2.45673 15.9936 2 14.3109 2 12.5C2 10.6891 2.45673 9.00642 3.37019 7.45192C4.25161 5.94551 5.44551 4.75161 6.95192 3.87019C8.50642 2.95673 10.1891 2.5 12 2.5Z" fill="white"/>
</mask>
<g mask="url(#mask0_5947_126)">
</g>
</svg>
