<svg width="24" height="24" viewBox="0 0 24 24" fill="none" xmlns="http://www.w3.org/2000/svg">
<path fill-rule="evenodd" clip-rule="evenodd" d="M4.0075 4C2.90342 4 2.00819 4.89467 2.0075 5.99875L2 17.9699C1.99931 19.075 2.89494 19.9712 4 19.9712H19.9987C21.1033 19.9712 21.9987 19.0757 21.9987 17.9712V6C21.9987 4.89543 21.1033 4 19.9987 4H4.0075ZM19.9987 18H3.99875V8.54438C3.99875 8.30809 4.25922 8.16455 4.45898 8.29075L11.4787 12.7255C11.8049 12.9316 12.2206 12.9316 12.5468 12.7255L19.5658 8.29171C19.7659 8.16531 20.0267 8.30954 20.026 8.54621L19.9987 18ZM11.9987 11L4.88579 6.5544C4.63019 6.39465 4.74338 6 5.04479 6H18.9784C19.28 6 19.393 6.39519 19.1369 6.55466L11.9987 11Z" fill="#3399FF"/>
<mask id="mask0_5947_138" style="mask-type:luminance" maskUnits="userSpaceOnUse" x="2" y="4" width="20" height="16">
<path fill-rule="evenodd" clip-rule="evenodd" d="M4.0075 4C2.90342 4 2.00819 4.89467 2.0075 5.99875L2 17.9699C1.99931 19.075 2.89494 19.9712 4 19.9712H19.9987C21.1033 19.9712 21.9987 19.0757 21.9987 17.9712V6C21.9987 4.89543 21.1033 4 19.9987 4H4.0075ZM19.9987 18H3.99875V8.54438C3.99875 8.30809 4.25922 8.16455 4.45898 8.29075L11.4787 12.7255C11.8049 12.9316 12.2206 12.9316 12.5468 12.7255L19.5658 8.29171C19.7659 8.16531 20.0267 8.30954 20.026 8.54621L19.9987 18ZM11.9987 11L4.88579 6.5544C4.63019 6.39465 4.74338 6 5.04479 6H18.9784C19.28 6 19.393 6.39519 19.1369 6.55466L11.9987 11Z" fill="white"/>
</mask>
<g mask="url(#mask0_5947_138)">
</g>
</svg>
