<svg width="25" height="25" viewBox="0 0 25 25" fill="none" xmlns="http://www.w3.org/2000/svg">
<path fill-rule="evenodd" clip-rule="evenodd" d="M10.2042 10.1972C10.1994 10.1516 10.1659 10.0633 10.0644 9.96183L10.2131 10.1105C10.2094 10.1354 10.2069 10.1577 10.2057 10.177L10.2042 10.1972ZM12.4317 12.3291L14.5892 14.4866C14.6645 14.4805 14.7638 14.4638 14.8795 14.4358C15.0292 14.3997 15.1954 14.3478 15.3693 14.2842C15.6052 14.1979 15.8021 14.1114 15.9444 14.0427C16.9658 13.5915 18.3666 13.7978 19.2158 14.5254L21.7122 16.6642C22.7096 17.5188 22.7683 18.9996 21.8406 19.9272L20.3673 21.4006C19.2154 22.5525 17.3602 22.4697 15.5496 21.7453C15.1987 21.6398 14.592 21.3381 13.7055 20.737C12.3053 19.7875 10.58 18.3293 8.50573 16.255C6.43145 14.1808 4.97327 12.4555 4.02374 11.0552C3.42262 10.1687 3.12099 9.56207 3.04395 9.29287C2.29108 7.40057 2.20827 5.5454 3.36019 4.39348L4.83356 2.92011C5.76119 1.99248 7.24201 2.05116 8.09653 3.04855L10.2353 5.54493C10.9629 6.39414 11.1693 7.79495 10.6782 8.89665C10.6199 9.00206 10.5232 9.1957 10.4271 9.42636C10.3592 9.58947 10.3034 9.74488 10.2641 9.88405C10.2391 9.97229 10.2223 10.0494 10.2131 10.1105L12.4317 12.3291ZM8.33937 9.34043C8.40234 9.11749 8.48437 8.889 8.58098 8.65713C8.70936 8.34902 8.83722 8.09278 8.88865 8.00819C9.0287 7.69115 8.94318 7.11071 8.71654 6.84618L6.57773 4.3498C6.48065 4.23648 6.35076 4.23133 6.24777 4.33432L4.7744 5.80769C4.36708 6.21501 4.41703 7.33387 4.93076 8.63525C4.97412 8.77945 5.18607 9.20574 5.67905 9.93275C6.55303 11.2216 7.93053 12.8514 9.91994 14.8408C11.9094 16.8302 13.5392 18.2077 14.828 19.0817C15.555 19.5747 15.9813 19.7866 16.2072 19.8585C17.4269 20.3437 18.5457 20.3937 18.9531 19.9864L20.4264 18.513C20.5294 18.41 20.5243 18.2801 20.411 18.183L17.9146 16.0442C17.65 15.8176 17.0696 15.7321 16.7875 15.8559C16.6227 15.9364 16.3657 16.0493 16.0562 16.1625C15.8157 16.2504 15.579 16.3244 15.3488 16.38C14.5108 16.5823 13.8336 16.5594 13.3087 16.0345L11.0175 13.7433L8.65021 11.376C8.11573 10.8416 8.10795 10.1598 8.33937 9.34043Z" fill="#3399FF"/>
</svg>
