<svg width="120" height="120" viewBox="0 0 120 120" fill="none" xmlns="http://www.w3.org/2000/svg">
<g clip-path="url(#clip0_5933_1473)">
<path d="M65.1978 83.258H68.1978V80.258V78.2491V75.2491H65.1978H58.6691H55.6691V78.2491V80.258V83.258H58.6691H65.1978Z" fill="white" stroke="#0E4791" stroke-width="6"/>
<path d="M18.3889 55.9663L18.3876 55.9686C16.9933 58.4463 17.8781 61.5854 20.3539 62.9749L20.3542 62.975L46.5655 77.6812L46.5656 77.6813C47.3353 78.1131 48.2049 78.3397 49.0858 78.3397H73.9629L93.7592 88.4879L95.1278 85.8183L93.7592 88.4879C94.4856 88.8603 95.2831 89.0558 96.1058 89.0558C98.0363 89.0558 99.8004 87.9845 100.686 86.2642L100.687 86.2628C101.312 85.0451 101.428 83.6411 101.009 82.3385L101.008 82.3363C100.588 81.0318 99.6744 79.9592 98.458 79.3356L98.4579 79.3355L77.5555 68.6207C77.5553 68.6206 77.5551 68.6205 77.555 68.6205C76.828 68.2477 76.0196 68.0535 75.2056 68.0535H50.4322L25.395 54.006C25.3948 54.0059 25.3946 54.0058 25.3943 54.0056C25.3942 54.0056 25.3941 54.0055 25.394 54.0054C24.6278 53.5754 23.7606 53.3464 22.8778 53.3464C21.0215 53.3464 19.3027 54.346 18.3889 55.9663ZM73.6162 78.1621L73.6174 78.1627C73.6166 78.1622 73.6158 78.1618 73.6149 78.1614L73.6162 78.1621Z" fill="#0064E8" stroke="#0E4791" stroke-width="6"/>
<path d="M55.1537 95.8268H52.1537V98.8268H55.1537H68.7133H71.7133V95.8268V90.5537C71.7133 85.1524 67.3348 80.7739 61.9335 80.7739C56.5317 80.7739 52.1537 85.1541 52.1537 90.5547V90.5714V90.588V90.6047V90.6213V90.6379V90.6546V90.6712V90.6878V90.7044V90.721V90.7375V90.7541V90.7706V90.7872V90.8037V90.8202V90.8367V90.8532V90.8697V90.8862V90.9026V90.9191V90.9355V90.9519V90.9684V90.9848V91.0011V91.0175V91.0339V91.0502V91.0666V91.0829V91.0992V91.1155V91.1318V91.1481V91.1644V91.1806V91.1969V91.2131V91.2293V91.2455V91.2617V91.2779V91.294V91.3102V91.3263V91.3424V91.3585V91.3746V91.3907V91.4068V91.4228V91.4388V91.4549V91.4709V91.4868V91.5028V91.5188V91.5347V91.5507V91.5666V91.5825V91.5984V91.6142V91.6301V91.6459V91.6617V91.6776V91.6933V91.7091V91.7249V91.7406V91.7564V91.7721V91.7878V91.8034V91.8191V91.8347V91.8504V91.866V91.8816V91.8972V91.9127V91.9283V91.9438V91.9593V91.9748V91.9903V92.0057V92.0212V92.0366V92.052V92.0674V92.0827V92.0981V92.1134V92.1287V92.144V92.1593V92.1746V92.1898V92.205V92.2202V92.2354V92.2506V92.2657V92.2808V92.2959V92.311V92.3261V92.3411V92.3562V92.3712V92.3862V92.4011V92.4161V92.431V92.4459V92.4608V92.4757V92.4905V92.5053V92.5201V92.5349V92.5497V92.5644V92.5791V92.5938V92.6085V92.6232V92.6378V92.6524V92.667V92.6816V92.6962V92.7107V92.7252V92.7397V92.7541V92.7686V92.783V92.7974V92.8118V92.8261V92.8404V92.8547V92.869V92.8833V92.8975V92.9117V92.9259V92.9401V92.9542V92.9684V92.9825V92.9965V93.0106V93.0246V93.0386V93.0526V93.0665V93.0805V93.0944V93.1083V93.1221V93.136V93.1498V93.1635V93.1773V93.191V93.2047V93.2184V93.2321V93.2457V93.2593V93.2729V93.2865V93.3V93.3135V93.327V93.3404V93.3539V93.3673V93.3806V93.394V93.4073V93.4206V93.4339V93.4471V93.4604V93.4735V93.4867V93.4998V93.513V93.526V93.5391V93.5521V93.5651V93.5781V93.591V93.604V93.6169V93.6297V93.6426V93.6554V93.6681V93.6809V93.6936V93.7063V93.719V93.7316V93.7442V93.7568V93.7693V93.7819V93.7944V93.8068V93.8193V93.8317V93.844V93.8564V93.8687V93.881V93.8933V93.9055V93.9177V93.9299V93.942V93.9541V93.9662V93.9782V93.9902V94.0022V94.0142V94.0261V94.038V94.0499V94.0617V94.0735V94.0853V94.097V94.1087V94.1204V94.132V94.1437V94.1552V94.1668V94.1783V94.1898V94.2012V94.2127V94.2241V94.2354V94.2467V94.258V94.2693V94.2805V94.2917V94.3029V94.314V94.3251V94.3362V94.3472V94.3582V94.3692V94.3801V94.391V94.4018V94.4127V94.4235V94.4342V94.445V94.4557V94.4663V94.4769V94.4875V94.4981V94.5086V94.5191V94.5295V94.54V94.5503V94.5607V94.571V94.5813V94.5915V94.6017V94.6119V94.622V94.6321V94.6422V94.6522V94.6622V94.6722V94.6821V94.692V94.7018V94.7116V94.7214V94.7311V94.7409V94.7505V94.7601V94.7697V94.7793V94.7888V94.7983V94.8077V94.8171V94.8265V94.8358V94.8451V94.8544V94.8636V94.8728V94.8819V94.891V94.9001V94.9091V94.9181V94.9271V94.936V94.9448V94.9537V94.9625V94.9712V94.98V94.9886V94.9973V95.0059V95.0144V95.023V95.0314V95.0399V95.0483V95.0567V95.065V95.0733V95.0815V95.0897V95.0979V95.106V95.1141V95.1221V95.1301V95.1381V95.146V95.1539V95.1617V95.1695V95.1773V95.185V95.1927V95.2003V95.2079V95.2155V95.223V95.2304V95.2379V95.2452V95.2526V95.2599V95.2671V95.2744V95.2815V95.2887V95.2957V95.3028V95.3098V95.3168V95.3237V95.3305V95.3374V95.3442V95.3509V95.3576V95.3643V95.3709V95.3774V95.384V95.3905V95.3969V95.4033V95.4096V95.4159V95.4222V95.4284V95.4346V95.4407V95.4468V95.4529V95.4589V95.4648V95.4707V95.4766V95.4824V95.4882V95.4939V95.4996V95.5052V95.5108V95.5163V95.5218V95.5273V95.5327V95.538V95.5434V95.5486V95.5538V95.559V95.5641V95.5692V95.5743V95.5792V95.5842V95.5891V95.5939V95.5987V95.6035V95.6082V95.6128V95.6175V95.622V95.6265V95.631V95.6354V95.6398V95.6441V95.6484V95.6526V95.6568V95.6609V95.665V95.669V95.673V95.677V95.6809V95.6847V95.6885V95.6922V95.6959V95.6996V95.7032V95.7067V95.7102V95.7136V95.717V95.7204V95.7237V95.7269V95.7301V95.7333V95.7364V95.7394V95.7424V95.7453V95.7482V95.7511V95.7539V95.7566V95.7593V95.7619V95.7645V95.7671V95.7695V95.772V95.7744V95.7767V95.779V95.7812V95.7834V95.7855V95.7876V95.7896V95.7916V95.7935V95.7953V95.7971V95.7989V95.8006V95.8023V95.8039V95.8054V95.8069V95.8083V95.8097V95.8111V95.8123V95.8136V95.8147V95.8158V95.8169V95.8179V95.8189V95.8198V95.8206V95.8214V95.8222V95.8229V95.8235V95.8241V95.8246V95.8251V95.8255V95.8258V95.8261V95.8264V95.8266V95.8267V95.8268L55.1537 95.8268Z" fill="white" stroke="#0E4791" stroke-width="6"/>
<path d="M19.008 45.7645C19.008 47.9383 20.6862 50.1316 23.2667 50.1316C25.8473 50.1316 27.5254 47.9383 27.5254 45.7645V40.9465C27.5254 38.7726 25.8473 36.5794 23.2667 36.5794C20.6862 36.5794 19.008 38.7726 19.008 40.9465V45.7645Z" fill="#0064E8" stroke="#0E4791" stroke-width="6"/>
<path d="M34.4863 102V105H37.4863H85.6955H88.6955V102V99.7553C88.6955 97.3165 86.7241 95.3021 84.2521 95.3021H38.9297C36.4577 95.3021 34.4863 97.3165 34.4863 99.7553V102Z" fill="white" stroke="#0E4791" stroke-width="6"/>
<path d="M48.6382 55.6631C48.6382 58.9768 51.3245 61.6631 54.6382 61.6631H86.806C90.1197 61.6631 92.806 58.9768 92.806 55.6631V54.1299C92.806 50.8162 90.1197 48.1299 86.806 48.1299H54.6382C51.3245 48.1299 48.6382 50.8162 48.6382 54.1299V55.6631Z" fill="white" stroke="#0E4791" stroke-width="6"/>
<path d="M64.709 67.2009V70.2009H67.709H73.7354H76.7354V67.2009V63.1832V60.1832H73.7354H67.709H64.709V63.1832V67.2009Z" fill="white" stroke="#0E4791" stroke-width="6"/>
<path fill-rule="evenodd" clip-rule="evenodd" d="M71.1085 51.0617C70.3403 51.0617 69.7176 50.441 69.7176 49.6752V29.5698C69.7176 23.5159 64.7772 18.5911 58.7041 18.5911C55.7624 18.5911 52.9964 19.7331 50.9161 21.8064C50.8953 21.8277 50.874 21.8475 50.8517 21.8674L49.6351 22.9341C49.0589 23.4401 48.1803 23.3847 47.6721 22.8088C47.1645 22.2344 47.221 21.3581 47.7978 20.852L48.9814 19.8136C51.5838 17.237 55.0345 15.8182 58.7041 15.8182C66.3109 15.8182 72.4994 21.9871 72.4994 29.5698V49.6752C72.4994 50.441 71.8767 51.0617 71.1085 51.0617Z" fill="#0E4791"/>
<path d="M40.0948 17.4962C37.8123 17.9137 36.4226 19.6508 36.1236 21.557C35.8469 23.3205 36.4785 25.1554 37.7761 26.4531L44.2426 32.9196C45.5403 34.2172 47.3752 34.8488 49.1387 34.5722C51.0448 34.2731 52.7821 32.8835 53.1996 30.6009C53.3219 29.9321 53.384 29.2498 53.384 28.5608C53.384 25.5613 52.2095 22.727 50.0891 20.6066C47.9688 18.4863 45.1345 17.3117 42.1354 17.3117C41.4462 17.3117 40.7637 17.3738 40.0948 17.4962Z" fill="#7CB3EA" stroke="#0E4791" stroke-width="6"/>
<path fill-rule="evenodd" clip-rule="evenodd" d="M23.4103 55.5946C22.7151 55.5946 22.1516 54.9826 22.1516 54.2275V49.4095C22.1516 48.6544 22.7151 48.0424 23.4103 48.0424C24.1055 48.0424 24.669 48.6544 24.669 49.4095V54.2275C24.669 54.9826 24.1055 55.5946 23.4103 55.5946Z" fill="#0E4791"/>
<path d="M73.7487 47.6146V50.6146H76.7487H78.2553H81.2553V47.6146V44.3503C81.2553 42.2774 79.5749 40.597 77.502 40.597C75.4291 40.597 73.7487 42.2774 73.7487 44.3503V47.6146Z" fill="white" stroke="#0E4791" stroke-width="6"/>
<path d="M82.7883 47.6146V50.6146H85.7883H87.295H90.295V47.6146V44.3503C90.295 42.2774 88.6145 40.597 86.5416 40.597C84.4687 40.597 82.7883 42.2774 82.7883 44.3503V47.6146Z" fill="white" stroke="#0E4791" stroke-width="6"/>
</g>
<defs>
<clipPath id="clip0_5933_1473">
<rect width="120" height="120" fill="white"/>
</clipPath>
</defs>
</svg>
