<svg width="24" height="24" viewBox="0 0 24 24" fill="none" xmlns="http://www.w3.org/2000/svg">
<path fill-rule="evenodd" clip-rule="evenodd" d="M12 12.4712C11.0463 12.4712 10.2065 12.1262 9.53712 11.4573C8.86764 10.7883 8.52234 9.94867 8.52234 8.99519C8.52234 8.36967 8.68148 7.77898 8.99548 7.24106C9.30504 6.71074 9.72663 6.28383 10.2496 5.97248C10.7822 5.65542 11.372 5.49519 12 5.49519C12.6256 5.49519 13.2164 5.65414 13.7545 5.9678C14.2884 6.27903 14.7171 6.70746 15.0286 7.24106C15.3426 7.77898 15.5017 8.36967 15.5017 8.99519C15.5017 9.62311 15.3413 10.2128 15.0239 10.7452C14.7123 11.2679 14.2851 11.6892 13.7545 11.9985C13.2164 12.3122 12.6256 12.4712 12 12.4712ZM12 10.4712C12.2724 10.4712 12.5156 10.4057 12.7472 10.2707C12.9864 10.1313 13.1686 9.95161 13.306 9.72111C13.4376 9.50031 13.5017 9.26472 13.5017 8.99519C13.5017 8.72328 13.4363 8.48064 13.3013 8.24932C13.1638 8.0137 12.9831 7.83315 12.7472 7.69566C12.5156 7.5606 12.2724 7.49519 12 7.49519C11.7299 7.49519 11.4939 7.55932 11.2727 7.69099C11.042 7.82835 10.8622 8.01041 10.7227 8.24932C10.5877 8.48064 10.5223 8.72328 10.5223 8.99519C10.5223 9.41993 10.6581 9.75013 10.9509 10.0427C11.2437 10.3353 11.5745 10.4712 12 10.4712ZM13.6466 18.3565C14.4169 17.3041 15.0993 16.2929 15.6852 15.3379C16.3967 14.1323 16.9501 13.0185 17.3436 12.0054C17.7844 10.8452 18 9.83993 18 8.99519C18 7.88854 17.7334 6.8845 17.2011 5.97053C16.6615 5.05804 15.9408 4.33782 15.0333 3.8019C14.1128 3.26646 13.1077 3 12 3C10.8923 3 9.88721 3.26646 8.97239 3.79858C8.0592 4.33782 7.33848 5.05804 6.80224 5.96487C6.26656 6.8845 6 7.88854 6 8.99519C6 9.83993 6.21556 10.8452 6.65383 11.9986C7.04988 13.0185 7.60333 14.1323 8.30605 15.3233C8.90072 16.2929 9.58315 17.3041 10.3564 18.3607C10.8757 19.0781 11.425 19.7806 12 20.4633C12.5778 19.7771 13.1257 19.0761 13.6466 18.3565ZM12 1C13.4581 1 14.8105 1.35853 16.0446 2.07642C17.2482 2.78719 18.2113 3.74964 18.926 4.95821C19.6411 6.18602 20 7.53773 20 8.99519C20 10.1056 19.7345 11.3439 19.2105 12.7226C18.7727 13.8501 18.1715 15.06 17.3988 16.369C16.7747 17.3866 16.062 18.4427 15.2636 19.5335C14.7037 20.307 14.1109 21.0639 13.4807 21.8097L12.759 22.651C12.36 23.1163 11.64 23.1163 11.241 22.651L10.5145 21.8041C9.88906 21.0639 9.29633 20.307 8.73941 19.5377C7.93804 18.4427 7.22529 17.3866 6.5924 16.3544C5.82851 15.06 5.22732 13.8501 4.78687 12.7158C4.26553 11.3439 4 10.1056 4 8.99519C4 7.53773 4.35886 6.18602 5.07737 4.95255C5.78867 3.74964 6.75178 2.78719 7.96111 2.0731C9.18954 1.35853 10.5419 1 12 1Z" fill="#DEDEDE" fill-opacity="0.8"/>
</svg>
