<svg width="25" height="25" viewBox="0 0 25 25" fill="none" xmlns="http://www.w3.org/2000/svg">
<path fill-rule="evenodd" clip-rule="evenodd" d="M13.5 14.2678H18.5L7.83648 4.31357C7.79944 4.27899 7.75066 4.25977 7.7 4.25977C7.58954 4.25977 7.5 4.34931 7.5 4.45977V18.0998L11.5 15.2678L13.9988 20.2653C14.2793 20.8198 14.9503 21.0399 15.5 20.7618C16.0529 20.482 16.2756 19.8078 15.998 19.2538L13.5 14.2678ZM17.7861 18.3579C18.5571 19.8967 17.9387 21.7693 16.403 22.5463C14.8677 23.3231 12.9934 22.7083 12.2166 21.1731C12.2133 21.1664 12.2133 21.1664 12.2099 21.1598L10.7535 18.2468L8.65569 19.7321C7.33113 20.6699 5.5 19.7227 5.5 18.0998V4.45977C5.5 3.24474 6.48497 2.25977 7.7 2.25977C8.2573 2.25977 8.79384 2.47127 9.20123 2.85156L19.8648 12.8057C21.1916 14.0444 20.3152 16.2678 18.5 16.2678H16.739L17.7861 18.3579Z" fill="#3399FF"/>
</svg>
