<svg width="24" height="24" viewBox="0 0 24 24" fill="none" xmlns="http://www.w3.org/2000/svg">
<path fill-rule="evenodd" clip-rule="evenodd" d="M9.70418 9.93645C9.69941 9.89083 9.6659 9.80253 9.56445 9.70108L9.71315 9.84978C9.7094 9.8747 9.70693 9.89698 9.7057 9.91629L9.70418 9.93645ZM11.9317 12.0683L14.0892 14.2259C14.1645 14.2197 14.2639 14.203 14.3795 14.1751C14.5292 14.139 14.6954 14.087 14.8693 14.0234C15.1052 13.9371 15.3021 13.8506 15.4444 13.7819C16.4658 13.3307 17.8666 13.5371 18.7159 14.2647L21.2122 16.4035C22.2096 17.258 22.2683 18.7388 21.3407 19.6665L19.8673 21.1398C18.7154 22.2917 16.8602 22.2089 15.0496 21.4845C14.6987 21.379 14.092 21.0774 13.2056 20.4763C11.8053 19.5267 10.08 18.0686 8.00576 15.9943C5.93148 13.92 4.4733 12.1948 3.52377 10.7945C2.92265 9.908 2.62102 9.30133 2.54399 9.03213C1.79111 7.13983 1.7083 5.28466 2.86022 4.13273L4.33359 2.65937C5.26122 1.73174 6.74204 1.79042 7.59656 2.78781L9.73537 5.28418C10.4629 6.1334 10.6693 7.53421 10.1783 8.63591C10.1199 8.74132 10.0233 8.93496 9.92717 9.16561C9.8592 9.32873 9.80341 9.48414 9.7641 9.62331C9.73918 9.71154 9.72234 9.78861 9.71315 9.84978L11.9317 12.0683ZM7.8394 9.07969C7.90237 8.85674 7.9844 8.62826 8.08101 8.39638C8.20939 8.08828 8.33725 7.83204 8.38868 7.74745C8.52873 7.43041 8.44321 6.84997 8.21657 6.58543L6.07777 4.08906C5.98068 3.97574 5.85079 3.97059 5.7478 4.07358L4.27443 5.54695C3.86711 5.95427 3.91706 7.07313 4.43079 8.37451C4.47415 8.51871 4.6861 8.945 5.17908 9.67201C6.05306 10.9609 7.43056 12.5907 9.41997 14.5801C11.4094 16.5695 13.0392 17.947 14.328 18.821C15.055 19.3139 15.4813 19.5259 15.7073 19.5977C16.9269 20.083 18.0458 20.1329 18.4531 19.7256L19.9265 18.2522C20.0295 18.1493 20.0243 18.0194 19.911 17.9223L17.4146 15.7835C17.1501 15.5568 16.5696 15.4713 16.2875 15.5951C16.1228 15.6756 15.8657 15.7886 15.5563 15.9017C15.3158 15.9897 15.079 16.0637 14.8489 16.1192C14.0109 16.3215 13.3336 16.2987 12.8087 15.7737L10.5175 13.4826L8.15024 11.1153C7.61576 10.5808 7.60798 9.89904 7.8394 9.07969Z" fill="#DEDEDE" fill-opacity="0.8"/>
</svg>
